<?xml version="1.0" encoding="utf-8"?>
<!-- Generator: Adobe Illustrator 21.1.0, SVG Export Plug-In . SVG Version: 6.00 Build 0)  -->
<svg version="1.0" id="Layer_1" xmlns="http://www.w3.org/2000/svg" xmlns:xlink="http://www.w3.org/1999/xlink" x="0px" y="0px"
	 viewBox="0 0 612 792" style="enable-background:new 0 0 612 792;" xml:space="preserve">
<style type="text/css">
	.st0{fill:#ED2024;}
	.st1{fill:#2D2E30;}
	.st2{fill:#3BC1C9;}
	.st3{opacity:0.23;fill:#ED2024;}
	.st4{opacity:0.5;fill:#3BC1C9;}
	.st5{opacity:0.5;fill:#2D2E30;}
</style>
<g>
	<path class="st0" d="M206.8,332.6c8.9-6.2,18.6-11.2,28-16.6c20.6-12,41.2-23.8,61.8-35.7c1.8-1,3.2-1.8,5.5-0.5
		c29.8,17.4,59.8,34.6,89.6,51.9c0.5,0.3,0.8,1,1.2,1.5c-0.9,2.7-3.4,3.7-5.6,5c-27.3,15.5-54.4,31.6-81.7,47.2
		c-1.8,1-3.5,2.2-5.6,2.1c-3.7-0.5-6.5-2.8-9.6-4.6c-26.2-15.2-52.4-30.3-78.5-45.6C210,335.9,207.4,335.3,206.8,332.6z"/>
	<path class="st1" d="M300.1,386.5c26.8-15.5,53.6-30.9,80.4-46.4c4.1-2.4,8.3-4.7,12.4-7.1c0.1,5.3,0.3,10.5,0.3,15.8
		c0,29,0,57.9,0.1,86.9c0,3.5-1,5.3-4.2,7.1c-27.6,15.8-55.2,31.8-82.7,47.7c-2.1,1.2-4.2,2.2-6.3,3.3c-2.1-2-2.1-4.6-2.1-7.1
		c0-31,0-62,0-93C298.1,391.1,297.9,388.4,300.1,386.5z"/>
	<path class="st2" d="M300.1,386.5c0,35.7,0,71.5,0.1,107.2c-8.6-3.1-16-8.5-23.9-13c-22.2-12.6-44.2-25.5-66.4-38.2
		c-2.4-1.4-3.8-2.7-3.8-5.8c0.1-33.5,0.1-67.1,0.1-100.6c0-1.2,0.4-2.3,0.5-3.5c26.4,15.2,52.8,30.5,79.2,45.7
		C290.7,381,295.4,383.7,300.1,386.5z"/>
	<path class="st3" d="M204.9,315.2c8.9-6.2,18.6-11.2,28-16.6c20.6-12,41.2-23.8,61.8-35.7c1.8-1,3.2-1.8,5.5-0.5
		c29.8,17.4,59.8,34.6,89.6,51.9c0.5,0.3,0.8,1,1.2,1.5c-0.9,2.7-3.4,3.7-5.6,5c-27.3,15.5-54.4,31.6-81.7,47.2
		c-1.8,1-3.5,2.2-5.6,2.1c-3.7-0.5-6.5-2.8-9.6-4.6c-26.2-15.2-52.4-30.3-78.5-45.6C208.1,318.6,205.6,317.9,204.9,315.2z"/>
	<path class="st4" d="M286.8,398.2c0,35.7,0,71.5,0.1,107.2c-8.6-3.1-16-8.5-23.9-13c-22.2-12.6-44.2-25.5-66.4-38.2
		c-2.4-1.4-3.8-2.7-3.8-5.8c0.1-33.5,0.1-67.1,0.1-100.6c0-1.2,0.4-2.3,0.5-3.5c26.4,15.2,52.8,30.5,79.2,45.7
		C277.4,392.7,282.1,395.5,286.8,398.2z"/>
	<path class="st5" d="M313.4,398c26.8-15.5,53.6-30.9,80.4-46.4c4.1-2.4,8.3-4.7,12.4-7.1c0.1,5.3,0.3,10.5,0.3,15.8
		c0,29,0,57.9,0.1,86.9c0,3.5-1,5.3-4.2,7.1c-27.6,15.8-55.2,31.8-82.7,47.7c-2.1,1.2-4.2,2.2-6.3,3.3c-2.1-2-2.1-4.6-2.1-7.1
		c0-31,0-62,0-93C311.4,402.5,311.2,399.9,313.4,398z"/>
</g>
</svg>
