<?xml version="1.0" encoding="utf-8"?>
<!-- Generator: Adobe Illustrator 21.1.0, SVG Export Plug-In . SVG Version: 6.00 Build 0)  -->
<svg version="1.0" id="Layer_1" xmlns="http://www.w3.org/2000/svg" xmlns:xlink="http://www.w3.org/1999/xlink" x="0px" y="0px"
	 viewBox="0 0 612 792" style="enable-background:new 0 0 612 792;" xml:space="preserve">
<style type="text/css">
	.st0{opacity:0.15;fill:none;stroke:#000000;stroke-miterlimit:10;}
	.st1{fill:none;stroke:#3BC1C9;stroke-miterlimit:10;}
	.st2{opacity:0.5;fill:none;stroke:#3BC1C9;stroke-miterlimit:10;}
	.st3{opacity:0.23;fill:none;stroke:#ED2024;stroke-miterlimit:10;}
	.st4{fill:none;stroke:#ED2024;stroke-miterlimit:10;}
	.st5{fill:none;stroke:#2D2E30;stroke-miterlimit:10;}
	.st6{opacity:0.5;fill:none;stroke:#2D2E30;stroke-miterlimit:10;}
	.st7{font-family:'AvenirLTStd-Roman';}
	.st8{font-size:11.5311px;}
	.st9{letter-spacing:2;}
</style>
<rect x="216.3" y="269.9" class="st0" width="179.3" height="251.8"/>
<g>
	<path class="st1" d="M303.5,365.2c0,13.6,0,27.2,0,40.9c-3.3-1.2-6.1-3.3-9.1-5c-8.5-4.8-16.9-9.7-25.3-14.6
		c-0.9-0.5-1.4-1-1.4-2.2c0-12.8,0-25.6,0-38.4c0-0.4,0.1-0.9,0.2-1.3c10.1,5.8,20.1,11.6,30.2,17.4
		C299.9,363.1,301.7,364.2,303.5,365.2z"/>
	<path class="st2" d="M297.6,369.7c0,13.6,0,27.2,0,40.9c-3.3-1.2-6.1-3.3-9.1-5c-8.5-4.8-16.9-9.7-25.3-14.6
		c-0.9-0.5-1.4-1-1.4-2.2c0-12.8,0-25.6,0-38.4c0-0.4,0.1-0.9,0.2-1.3c10.1,5.8,20.1,11.6,30.2,17.4
		C294,367.6,295.8,368.6,297.6,369.7z"/>
	<path class="st3" d="M268.8,334.2c3.6-2.5,7.5-4.5,11.2-6.7c8.3-4.8,16.5-9.6,24.8-14.3c0.7-0.4,1.3-0.7,2.2-0.2
		c12,7,24,13.9,35.9,20.8c0.2,0.1,0.3,0.4,0.5,0.6c-0.4,1.1-1.4,1.5-2.2,2c-11,6.2-21.8,12.7-32.7,18.9c-0.7,0.4-1.4,0.9-2.3,0.9
		c-1.5-0.2-2.6-1.1-3.8-1.8c-10.5-6.1-21-12.1-31.5-18.3C270.1,335.6,269,335.3,268.8,334.2z"/>
	<path class="st4" d="M270.5,341.2c3.4-2.4,7.1-4.3,10.7-6.3c7.8-4.6,15.7-9.1,23.6-13.6c0.7-0.4,1.2-0.7,2.1-0.2
		c11.4,6.6,22.8,13.2,34.2,19.8c0.2,0.1,0.3,0.4,0.4,0.6c-0.3,1-1.3,1.4-2.1,1.9c-10.4,5.9-20.7,12-31.1,18
		c-0.7,0.4-1.3,0.8-2.2,0.8c-1.4-0.2-2.5-1.1-3.7-1.8c-10-5.8-20-11.5-29.9-17.4C271.7,342.5,270.8,342.3,270.5,341.2z"/>
	<g>
		<path class="st5" d="M308.7,364.4c10.2-5.9,20.4-11.8,30.7-17.7c1.6-0.9,3.2-1.8,4.7-2.7c0,2,0.1,4,0.1,6c0,11,0,22.1,0,33.1
			c0,1.3-0.4,2-1.6,2.7c-10.5,6-21,12.1-31.5,18.2c-0.8,0.5-1.6,0.8-2.4,1.2c-0.8-0.8-0.8-1.7-0.8-2.7c0-11.8,0-23.6,0-35.4
			C307.9,366.1,307.8,365.1,308.7,364.4z"/>
	</g>
	<path class="st6" d="M314.6,369.6c10.2-5.9,20.4-11.8,30.7-17.7c1.6-0.9,3.2-1.8,4.7-2.7c0,2,0.1,4,0.1,6c0,11,0,22.1,0,33.1
		c0,1.3-0.4,2-1.6,2.7c-10.5,6-21,12.1-31.5,18.2c-0.8,0.5-1.6,0.8-2.4,1.2c-0.8-0.8-0.8-1.7-0.8-2.7c0-11.8,0-23.6,0-35.4
		C313.8,371.3,313.8,370.3,314.6,369.6z"/>
</g>
<g>
	<g>
		<path d="M268.8,478.3c-0.1,0-0.2,0-0.3,0c-0.2,0-0.2-0.1-0.2-0.3c0.2-1.1,0.6-2,1.2-2.8c0.4-0.5,0.9-0.8,1.5-1
			c0.4-0.1,0.8-0.1,1.1-0.2c0.1,0,0.2,0,0.2,0c0.1,0,0.1-0.1,0.1-0.2c-0.3-0.9-0.6-1.9-1-2.8c-0.1-0.2-0.2-0.4-0.2-0.6
			c-0.1-0.2,0-0.2,0.2-0.2c0.2,0,0.3,0,0.5,0c0.2,0,0.3,0.1,0.4,0.3c0.2,0.5,0.4,1.1,0.5,1.6c0.2,0.5,0.4,1,0.5,1.5
			c0.2,0.6,0.4,1.1,0.6,1.7c0.2,0.7,0.5,1.3,0.7,2c0.1,0.3,0.2,0.5,0.3,0.8c0.1,0.2,0,0.3-0.2,0.3c-0.1,0-0.3,0-0.4,0
			c-0.2,0-0.3-0.1-0.4-0.3c-0.3-0.8-0.5-1.5-0.8-2.3c0-0.1-0.1-0.3-0.2-0.4c-0.1-0.3-0.2-0.3-0.5-0.3c-0.9,0-1.7,0.2-2.4,1
			c-0.5,0.6-0.7,1.3-0.8,2c0,0.3,0,0.3-0.3,0.3C269,478.3,268.9,478.3,268.8,478.3z"/>
		<text transform="matrix(1 0 0 1 271.6578 478.313)" class="st7 st8 st9"> LLIANCE</text>
	</g>
	<text transform="matrix(1 0 0 1 284.397 450.7542)"><tspan x="0" y="0" class="st7 st8 st9">CIVIC</tspan><tspan x="0.3" y="13.8" class="st7 st8 st9">DATA</tspan></text>
</g>
</svg>
