<?xml version="1.0" encoding="utf-8"?>
<!-- Generator: Adobe Illustrator 21.1.0, SVG Export Plug-In . SVG Version: 6.00 Build 0)  -->
<svg version="1.0" id="Layer_1" xmlns="http://www.w3.org/2000/svg" xmlns:xlink="http://www.w3.org/1999/xlink" x="0px" y="0px"
	 viewBox="0 0 612 792" style="enable-background:new 0 0 612 792;" xml:space="preserve">
<style type="text/css">
	.st0{font-family:'Avenir65-Medium';}
	.st1{font-size:8.1767px;}
	.st2{letter-spacing:2;}
	.st3{font-family:'AvenirLTStd-Roman';}
	.st4{font-size:11.5311px;}
	.st5{opacity:0.15;fill:none;stroke:#000000;stroke-miterlimit:10;}
	.st6{fill:#ED2024;}
	.st7{fill:#2D2E30;}
	.st8{fill:#3BC1C9;}
	.st9{opacity:0.23;fill:#ED2024;}
	.st10{opacity:0.5;fill:#3BC1C9;}
	.st11{opacity:0.5;fill:#2D2E30;}
</style>
<text transform="matrix(1 0 0 1 253.3326 478.3944)"><tspan x="0" y="0" class="st0 st1 st2">All The Data For </tspan><tspan x="8" y="10.9" class="st0 st1 st2">We The People</tspan></text>
<g>
	<g>
		<path d="M269.1,456.1c-0.1,0-0.2,0-0.3,0c-0.1,0-0.2-0.1-0.2-0.2c0.2-1,0.5-1.8,1.1-2.5c0.4-0.4,0.8-0.8,1.3-0.9
			c0.3-0.1,0.7-0.1,1-0.2c0.1,0,0.1,0,0.2,0c0.1,0,0.1-0.1,0.1-0.2c-0.3-0.8-0.6-1.7-0.9-2.5c-0.1-0.2-0.1-0.4-0.2-0.6
			c-0.1-0.2,0-0.2,0.1-0.2c0.1,0,0.3,0,0.4,0c0.2,0,0.3,0.1,0.4,0.3c0.2,0.5,0.3,1,0.5,1.5c0.2,0.5,0.3,0.9,0.5,1.4
			c0.2,0.5,0.3,1,0.5,1.5c0.2,0.6,0.4,1.2,0.6,1.8c0.1,0.2,0.2,0.5,0.2,0.7c0.1,0.2,0,0.2-0.1,0.2c-0.1,0-0.3,0-0.4,0
			c-0.2,0-0.3-0.1-0.4-0.3c-0.2-0.7-0.5-1.4-0.7-2.1c0-0.1-0.1-0.3-0.1-0.4c-0.1-0.2-0.2-0.3-0.4-0.3c-0.8,0-1.6,0.2-2.1,0.9
			c-0.4,0.5-0.7,1.1-0.7,1.8c0,0.3,0,0.3-0.3,0.3C269.3,456.1,269.2,456.1,269.1,456.1z"/>
		<text transform="matrix(1 0 0 1 270.5032 456.2378)" class="st3 st4 st2"> LLIANCE</text>
	</g>
	<text transform="matrix(1 0 0 1 282.6487 428.564)"><tspan x="0" y="0" class="st3 st4 st2">CIVIC</tspan><tspan x="0.3" y="13.8" class="st3 st4 st2">DATA</tspan></text>
</g>
<rect x="215.9" y="269.9" class="st5" width="179.3" height="251.8"/>
<g>
	<path class="st6" d="M264.6,326.4c3.9-2.7,8.2-4.9,12.4-7.3c9.1-5.3,18.2-10.5,27.3-15.8c0.8-0.5,1.4-0.8,2.4-0.2
		c13.2,7.6,26.3,15.2,39.5,22.9c0.2,0.1,0.3,0.4,0.5,0.7c-0.4,1.2-1.5,1.6-2.4,2.2c-12.1,6.8-24,13.9-36,20.8
		c-0.8,0.4-1.5,1-2.5,0.9c-1.6-0.2-2.9-1.2-4.2-2c-11.5-6.7-23.1-13.3-34.6-20.1C266,327.9,264.8,327.6,264.6,326.4z"/>
	<path class="st7" d="M305.7,350.2c11.8-6.8,23.6-13.6,35.5-20.5c1.8-1,3.6-2.1,5.5-3.1c0,2.3,0.1,4.6,0.1,7c0,12.8,0,25.5,0,38.3
		c0,1.5-0.5,2.4-1.8,3.1c-12.2,7-24.3,14-36.5,21c-0.9,0.5-1.9,1-2.8,1.4c-0.9-0.9-0.9-2-0.9-3.1c0-13.7,0-27.3,0-41
		C304.8,352.2,304.7,351.1,305.7,350.2z"/>
	<path class="st8" d="M305.7,350.2c0,15.8,0,31.5,0,47.3c-3.8-1.4-7-3.8-10.5-5.7c-9.8-5.5-19.5-11.3-29.3-16.8
		c-1.1-0.6-1.7-1.2-1.7-2.6c0.1-14.8,0-29.6,0-44.4c0-0.5,0.2-1,0.2-1.5c11.6,6.7,23.3,13.4,34.9,20.1
		C301.5,347.8,303.6,349,305.7,350.2z"/>
	<path class="st9" d="M263.7,318.8c3.9-2.7,8.2-4.9,12.4-7.3c9.1-5.3,18.2-10.5,27.3-15.8c0.8-0.5,1.4-0.8,2.4-0.2
		c13.2,7.6,26.3,15.2,39.5,22.9c0.2,0.1,0.3,0.4,0.5,0.7c-0.4,1.2-1.5,1.6-2.4,2.2c-12.1,6.8-24,13.9-36,20.8
		c-0.8,0.4-1.5,1-2.5,0.9c-1.6-0.2-2.9-1.2-4.2-2c-11.5-6.7-23.1-13.3-34.6-20.1C265.2,320.3,264,320,263.7,318.8z"/>
	<path class="st10" d="M299.8,355.4c0,15.8,0,31.5,0,47.3c-3.8-1.4-7-3.8-10.5-5.7c-9.8-5.5-19.5-11.3-29.3-16.8
		c-1.1-0.6-1.7-1.2-1.7-2.6c0.1-14.8,0-29.6,0-44.4c0-0.5,0.2-1,0.2-1.5c11.6,6.7,23.3,13.4,34.9,20.1
		C295.7,353,297.8,354.2,299.8,355.4z"/>
	<path class="st11" d="M311.6,355.3c11.8-6.8,23.6-13.6,35.5-20.5c1.8-1,3.6-2.1,5.5-3.1c0,2.3,0.1,4.6,0.1,7c0,12.8,0,25.5,0,38.3
		c0,1.5-0.5,2.4-1.8,3.1c-12.2,7-24.3,14-36.5,21c-0.9,0.5-1.9,1-2.8,1.4c-0.9-0.9-0.9-2-0.9-3.1c0-13.7,0-27.3,0-41
		C310.7,357.3,310.6,356.1,311.6,355.3z"/>
</g>
</svg>
