<?xml version="1.0" encoding="utf-8"?>
<!-- Generator: Adobe Illustrator 21.1.0, SVG Export Plug-In . SVG Version: 6.00 Build 0)  -->
<svg version="1.0" id="Layer_1" xmlns="http://www.w3.org/2000/svg" xmlns:xlink="http://www.w3.org/1999/xlink" x="0px" y="0px"
	 viewBox="0 0 612 792" style="enable-background:new 0 0 612 792;" xml:space="preserve">
<style type="text/css">
	.st0{font-family:'Avenir65-Medium';}
	.st1{font-size:7.5623px;}
	.st2{letter-spacing:2;}
	.st3{fill:#ED2024;}
	.st4{fill:#2D2E30;}
	.st5{fill:#3BC1C9;}
	.st6{opacity:0.23;fill:#ED2024;}
	.st7{opacity:0.5;fill:#3BC1C9;}
	.st8{opacity:0.5;fill:#2D2E30;}
	.st9{opacity:0.15;fill:none;stroke:#000000;stroke-miterlimit:10;}
</style>
<g>
	<text transform="matrix(1 0 0 1 258.2902 469.1776)"><tspan x="0" y="0" class="st0 st1 st2">All The Data For </tspan><tspan x="7.4" y="10.1" class="st0 st1 st2">We The People</tspan></text>
	<path d="M291.7,435.7c0-4.7,0-9.4,0-14.1c0-1.4,0-1.5,1.5-1.5c4.2,0,8.4-0.1,12.6,0.1c4.3,0.2,8,2,10.9,5.2c1.4,1.5,2.5,3.2,3,5.2
		c0.4,1.5,0.8,3,0.9,4.6c0.2,1.8-0.3,3.6-0.8,5.4c-0.7,2.4-2,4.4-3.8,6.2c-2,2-4.4,3.4-7.3,4c-1.4,0.3-2.8,0.4-4.2,0.5
		c-3.9,0.1-7.8,0-11.7,0c-1.1,0-1.1-0.1-1.1-1.1C291.7,445.4,291.7,440.5,291.7,435.7z M295.8,435.8c0,3.6,0,7.2,0,10.7
		c0,1.1,0.1,1.2,1.2,1.2c1,0,1.9,0,2.9,0c2.6-0.1,5.2,0.3,7.8-0.4c2.2-0.6,4.1-1.8,5.7-3.4c1.6-1.7,2.5-3.7,3-5.9
		c0.5-2.1,0.2-4.2-0.5-6.2c-0.7-2-1.9-3.7-3.6-5.1c-1.4-1.2-3.1-2.2-5-2.5c-1.7-0.3-3.5-0.4-5.2-0.4c-1.6-0.1-3.2,0-4.9,0
		c-1.3,0-1.4,0.2-1.4,1.4C295.8,428.7,295.8,432.2,295.8,435.8z"/>
	<path d="M274.6,420c4.2-0.2,7.7,1.2,10.8,3.7c1.1,0.9,1.1,1.1,0.2,2.1c-0.3,0.4-0.7,0.8-1,1.2c-0.3,0.4-0.6,0.4-1,0.1
		c-1.3-1.2-2.7-2.1-4.3-2.7c-2.5-0.9-5-1.1-7.5-0.5c-2.6,0.7-4.8,2.1-6.5,4.2c-2.5,3.2-3.3,6.8-2.2,10.8c1.3,4.6,4.4,7.5,9,8.6
		c4.1,1,7.8-0.1,11.1-2.8c0.8-0.7,0.9-0.7,1.7,0.1c0.4,0.4,0.8,0.9,1.2,1.3c0.4,0.4,0.3,0.8-0.1,1.1c-1.9,1.6-3.9,2.8-6.3,3.6
		c-1.8,0.6-3.6,0.9-5.5,0.8c-3.4-0.1-6.5-1.2-9.2-3.3c-2.3-1.7-4.1-3.9-5.2-6.6c-1.2-3.1-1.5-6.3-0.7-9.6c0.9-3.6,2.7-6.5,5.6-8.8
		C267.5,421.1,270.9,419.8,274.6,420z"/>
	<path d="M324.2,451.3c-0.5,0-0.9,0-1.4,0c-0.7,0-0.9-0.3-0.8-1c0.8-4.1,2.5-7.7,5.5-10.7c1.9-1.8,4-3.2,6.5-4
		c1.6-0.5,3.4-0.5,5-0.7c0.3,0,0.7,0,1,0c0.5,0,0.6-0.3,0.4-0.7c-1.4-3.6-2.8-7.1-4.2-10.7c-0.3-0.8-0.7-1.6-1-2.4
		c-0.3-0.8-0.1-0.9,0.7-0.9c0.7,0,1.4,0.1,2.1,0c1-0.1,1.5,0.4,1.8,1.2c0.8,2.1,1.5,4.1,2.3,6.2c0.8,2,1.6,3.9,2.3,5.9
		c0.8,2.1,1.6,4.2,2.5,6.4c1,2.5,2,5,3,7.5c0.4,1,0.8,2,1.2,3c0.3,0.8,0.1,1-0.7,1c-0.6,0-1.3-0.1-1.9,0c-1,0.1-1.5-0.3-1.8-1.2
		c-1.1-2.9-2.2-5.8-3.4-8.7c-0.2-0.6-0.5-1.1-0.7-1.7c-0.3-1-1.1-1.1-2-1.2c-4-0.2-7.5,1-10.4,3.8c-2.1,2.1-3.1,4.9-3.6,7.8
		c-0.2,1.1-0.1,1.1-1.2,1.1C325,451.3,324.6,451.3,324.2,451.3z"/>
</g>
<g>
	<path class="st3" d="M267,327.1c3.8-2.7,7.9-4.8,11.9-7.1c8.8-5.1,17.6-10.2,26.3-15.2c0.8-0.4,1.4-0.8,2.3-0.2
		c12.7,7.4,25.5,14.7,38.2,22.1c0.2,0.1,0.3,0.4,0.5,0.6c-0.4,1.2-1.4,1.6-2.4,2.1c-11.7,6.6-23.2,13.5-34.8,20.1
		c-0.8,0.4-1.5,0.9-2.4,0.9c-1.6-0.2-2.8-1.2-4.1-2c-11.1-6.5-22.3-12.9-33.5-19.4C268.3,328.6,267.2,328.3,267,327.1z"/>
	<path class="st4" d="M306.7,350.1c11.4-6.6,22.9-13.2,34.3-19.8c1.8-1,3.5-2,5.3-3c0,2.2,0.1,4.5,0.1,6.7c0,12.3,0,24.7,0,37
		c0,1.5-0.4,2.3-1.8,3c-11.8,6.7-23.5,13.5-35.3,20.3c-0.9,0.5-1.8,0.9-2.7,1.4c-0.9-0.8-0.9-1.9-0.9-3c0-13.2,0-26.4,0-39.6
		C305.9,352.1,305.8,351,306.7,350.1z"/>
	<path class="st5" d="M306.7,350.1c0,15.2,0,30.5,0,45.7c-3.7-1.3-6.8-3.6-10.2-5.5c-9.5-5.4-18.8-10.9-28.3-16.3
		c-1-0.6-1.6-1.2-1.6-2.5c0.1-14.3,0-28.6,0-42.9c0-0.5,0.2-1,0.2-1.5c11.2,6.5,22.5,13,33.7,19.5
		C302.7,347.8,304.7,349,306.7,350.1z"/>
	<path class="st6" d="M266.2,319.7c3.8-2.7,7.9-4.8,11.9-7.1c8.8-5.1,17.6-10.2,26.3-15.2c0.8-0.4,1.4-0.8,2.3-0.2
		c12.7,7.4,25.5,14.7,38.2,22.1c0.2,0.1,0.3,0.4,0.5,0.6c-0.4,1.2-1.4,1.6-2.4,2.1c-11.7,6.6-23.2,13.5-34.8,20.1
		c-0.8,0.4-1.5,0.9-2.4,0.9c-1.6-0.2-2.8-1.2-4.1-2c-11.1-6.5-22.3-12.9-33.5-19.4C267.5,321.2,266.4,320.9,266.2,319.7z"/>
	<path class="st7" d="M301.1,355.1c0,15.2,0,30.5,0,45.7c-3.7-1.3-6.8-3.6-10.2-5.5c-9.5-5.4-18.8-10.9-28.3-16.3
		c-1-0.6-1.6-1.2-1.6-2.5c0.1-14.3,0-28.6,0-42.9c0-0.5,0.2-1,0.2-1.5c11.2,6.5,22.5,13,33.7,19.5C297,352.8,299,354,301.1,355.1z"
		/>
	<path class="st8" d="M312.4,355c11.4-6.6,22.9-13.2,34.3-19.8c1.8-1,3.5-2,5.3-3c0,2.2,0.1,4.5,0.1,6.7c0,12.3,0,24.7,0,37
		c0,1.5-0.4,2.3-1.8,3c-11.8,6.7-23.5,13.5-35.3,20.3c-0.9,0.5-1.8,0.9-2.7,1.4c-0.9-0.8-0.9-1.9-0.9-3c0-13.2,0-26.4,0-39.6
		C311.5,357,311.4,355.8,312.4,355z"/>
</g>
<rect x="216.3" y="269.9" class="st9" width="179.3" height="251.8"/>
</svg>
