<?xml version="1.0" encoding="utf-8"?>
<!-- Generator: Adobe Illustrator 21.1.0, SVG Export Plug-In . SVG Version: 6.00 Build 0)  -->
<svg version="1.0" id="Layer_1" xmlns="http://www.w3.org/2000/svg" xmlns:xlink="http://www.w3.org/1999/xlink" x="0px" y="0px"
	 viewBox="0 0 612 792" style="enable-background:new 0 0 612 792;" xml:space="preserve">
<style type="text/css">
	.st0{opacity:0.23;fill:none;stroke:#ED2024;stroke-miterlimit:10;}
	.st1{fill:none;stroke:#ED2024;stroke-miterlimit:10;}
	.st2{fill:none;stroke:#2D2E30;stroke-miterlimit:10;}
	.st3{fill:none;stroke:#3BC1C9;stroke-miterlimit:10;}
	.st4{opacity:0.5;fill:none;stroke:#3BC1C9;stroke-miterlimit:10;}
	.st5{opacity:0.5;fill:none;stroke:#2D2E30;stroke-miterlimit:10;}
</style>
<g>
	<path class="st0" d="M198.1,313.6c9.6-6.7,20.1-12,30.2-17.9c22.2-12.9,44.4-25.7,66.6-38.5c1.9-1.1,3.5-2,5.9-0.6
		c32.2,18.7,64.4,37.3,96.6,55.9c0.5,0.3,0.8,1.1,1.3,1.6c-1,2.9-3.6,4-6,5.4c-29.5,16.7-58.6,34-88,50.8c-1.9,1.1-3.7,2.4-6.1,2.3
		c-4-0.5-7-3-10.3-5c-28.2-16.4-56.5-32.6-84.6-49.1C201.6,317.2,198.8,316.5,198.1,313.6z"/>
	<path class="st1" d="M202.8,332.4c9.2-6.4,19.1-11.4,28.7-17c21.1-12.3,42.2-24.4,63.3-36.6c1.8-1.1,3.3-1.9,5.6-0.5
		c30.6,17.8,61.2,35.4,91.8,53.1c0.5,0.3,0.8,1,1.2,1.5c-0.9,2.8-3.5,3.8-5.7,5.1c-28,15.9-55.7,32.3-83.6,48.3
		c-1.8,1-3.6,2.2-5.8,2.2c-3.8-0.5-6.7-2.9-9.8-4.7c-26.8-15.6-53.7-31-80.4-46.7C206.1,335.9,203.5,335.2,202.8,332.4z"/>
	<g>
		<path class="st2" d="M305.3,394.6c27.5-15.8,54.9-31.7,82.4-47.5c4.2-2.4,8.5-4.8,12.7-7.3c0.1,5.4,0.3,10.8,0.3,16.2
			c0,29.7,0,59.3,0.1,89c0,3.6-1.1,5.5-4.3,7.3c-28.3,16.1-56.5,32.5-84.7,48.8c-2.1,1.2-4.3,2.2-6.5,3.3c-2.1-2-2.2-4.7-2.2-7.3
			c0-31.7,0-63.5,0-95.2C303.2,399.3,303,396.6,305.3,394.6z"/>
	</g>
	<path class="st3" d="M291.4,396.9c0,36.6,0,73.2,0.1,109.8c-8.8-3.2-16.4-8.8-24.4-13.3c-22.7-12.9-45.3-26.1-68-39.1
		c-2.5-1.4-3.9-2.8-3.9-6c0.1-34.4,0.1-68.7,0.1-103.1c0-1.2,0.4-2.4,0.6-3.6c27,15.6,54.1,31.2,81.1,46.8
		C281.8,391.3,286.6,394.1,291.4,396.9z"/>
	<path class="st4" d="M275.5,408.9c0,36.6,0,73.2,0.1,109.8c-8.8-3.2-16.4-8.8-24.4-13.3c-22.7-12.9-45.3-26.1-68-39.1
		c-2.5-1.4-3.9-2.8-3.9-6c0.1-34.4,0.1-68.7,0.1-103.1c0-1.2,0.4-2.4,0.6-3.6c27,15.6,54.1,31.2,81.1,46.8
		C265.9,403.3,270.7,406.1,275.5,408.9z"/>
	<path class="st5" d="M321.3,408.7c27.5-15.8,54.9-31.7,82.4-47.5c4.2-2.4,8.5-4.8,12.7-7.3c0.1,5.4,0.3,10.8,0.3,16.2
		c0,29.7,0,59.3,0.1,89c0,3.6-1.1,5.5-4.3,7.3c-28.3,16.1-56.5,32.5-84.7,48.8c-2.1,1.2-4.3,2.2-6.5,3.3c-2.1-2-2.2-4.7-2.2-7.3
		c0-31.7,0-63.5,0-95.2C319.2,413.4,319,410.6,321.3,408.7z"/>
</g>
</svg>
