<?xml version="1.0" encoding="utf-8"?>
<!-- Generator: Adobe Illustrator 21.1.0, SVG Export Plug-In . SVG Version: 6.00 Build 0)  -->
<svg version="1.0" id="Layer_1" xmlns="http://www.w3.org/2000/svg" xmlns:xlink="http://www.w3.org/1999/xlink" x="0px" y="0px"
	 viewBox="0 0 612 792" style="enable-background:new 0 0 612 792;" xml:space="preserve">
<style type="text/css">
	.st0{font-family:'Avenir65-Medium';}
	.st1{font-size:19.3896px;}
	.st2{letter-spacing:5;}
</style>
<text transform="matrix(1 0 0 1 185.1167 466.9224)"><tspan x="0" y="0" class="st0 st1 st2">All The Data For </tspan><tspan x="19" y="25.9" class="st0 st1 st2">We The People</tspan></text>
<g>
	<path d="M261.9,380.4c0-12.4,0-24.9,0-37.3c0-3.8,0.1-3.9,4-3.9c11.1,0.1,22.1-0.2,33.1,0.4c11.4,0.6,21.2,5.2,28.9,13.8
		c3.6,4,6.6,8.5,7.9,13.8c0.9,4,2,8,2.4,12.1c0.4,4.8-0.7,9.6-2.1,14.3c-1.9,6.3-5.3,11.7-10,16.3c-5.4,5.3-11.7,9-19.2,10.5
		c-3.6,0.7-7.3,1.2-11,1.2c-10.3,0.2-20.7,0.1-31,0.1c-2.8,0-3-0.2-3-3C261.9,406,261.9,393.2,261.9,380.4z M272.6,380.7
		c0,9.4,0,18.9,0,28.3c0,3,0.3,3.2,3.3,3.2c2.5,0,5.1,0.1,7.6,0c6.9-0.4,13.7,0.8,20.6-1.1c5.9-1.6,10.9-4.6,15-9
		c4.2-4.4,6.5-9.7,7.8-15.5c1.3-5.6,0.5-11-1.3-16.3c-1.8-5.4-5.1-9.9-9.5-13.5c-3.8-3.2-8.2-5.7-13.1-6.6c-4.5-0.8-9.2-1-13.9-1.2
		c-4.3-0.2-8.6,0-12.9,0c-3.3,0-3.8,0.4-3.8,3.8C272.6,362.1,272.6,371.4,272.6,380.7z"/>
	<path d="M216.6,339.1c11-0.5,20.2,3.2,28.4,9.8c2.9,2.3,2.9,2.8,0.5,5.6c-0.9,1-1.8,2.1-2.7,3.2c-0.8,1-1.6,1.1-2.6,0.3
		c-3.4-3.1-7.1-5.5-11.3-7.1c-6.5-2.4-13.1-3-19.9-1.2c-7,1.8-12.8,5.5-17.2,11.2c-6.6,8.5-8.8,18-5.8,28.4
		c3.5,12.1,11.7,19.9,23.8,22.7c10.8,2.6,20.7-0.3,29.2-7.5c2.2-1.9,2.3-1.9,4.4,0.2c1.1,1.2,2.1,2.4,3.2,3.6c1,1.1,0.9,2-0.3,3
		c-4.9,4.3-10.4,7.5-16.7,9.5c-4.8,1.5-9.6,2.3-14.6,2.1c-9-0.4-17.2-3.2-24.4-8.6c-6.1-4.6-10.8-10.4-13.6-17.5
		c-3.3-8.2-4.1-16.6-2-25.4c2.3-9.5,7.2-17.3,14.8-23.1C197.9,342,206.8,338.5,216.6,339.1z"/>
	<path d="M347.5,421.6c-1.2,0-2.5,0-3.7,0c-1.9,0.1-2.5-0.9-2.1-2.6c2.2-10.8,6.5-20.4,14.4-28.2c4.9-4.8,10.6-8.5,17.1-10.4
		c4.2-1.3,8.8-1.3,13.3-1.9c0.9-0.1,1.7,0,2.6-0.1c1.3-0.1,1.5-0.8,1.1-1.9c-3.7-9.4-7.4-18.9-11.1-28.3c-0.8-2.2-1.8-4.3-2.5-6.5
		c-0.7-2.2-0.3-2.4,1.8-2.3c1.8,0.1,3.7,0.3,5.4,0.1c2.6-0.3,3.9,1,4.7,3.2c2.1,5.4,4.1,10.9,6.1,16.3c2,5.2,4.1,10.3,6.1,15.5
		c2.2,5.6,4.3,11.2,6.5,16.8c2.6,6.6,5.2,13.2,7.8,19.8c1,2.6,2.1,5.2,3.1,7.9c0.7,2,0.2,2.7-1.9,2.7c-1.7,0-3.4-0.2-5,0
		c-2.7,0.4-4-0.9-4.8-3.2c-2.9-7.7-5.9-15.4-8.9-23.1c-0.6-1.5-1.3-2.9-1.8-4.4c-0.8-2.7-2.8-2.9-5.3-3c-10.5-0.4-19.8,2.5-27.3,10
		c-5.6,5.7-8.3,12.8-9.4,20.6c-0.4,3-0.3,3-3.2,3C349.6,421.6,348.6,421.6,347.5,421.6z"/>
</g>
</svg>
