<?xml version="1.0" encoding="utf-8"?>
<!-- Generator: Adobe Illustrator 21.1.0, SVG Export Plug-In . SVG Version: 6.00 Build 0)  -->
<svg version="1.0" id="Layer_1" xmlns="http://www.w3.org/2000/svg" xmlns:xlink="http://www.w3.org/1999/xlink" x="0px" y="0px"
	 viewBox="0 0 612 792" style="enable-background:new 0 0 612 792;" xml:space="preserve">
<style type="text/css">
	.st0{font-family:'AvenirLTStd-Roman';}
	.st1{font-size:37.1111px;}
	.st2{letter-spacing:8;}
	.st3{font-family:'Avenir65-Medium';}
	.st4{font-size:19.3896px;}
	.st5{letter-spacing:5;}
</style>
<g>
	<g>
		<g>
			<path d="M186.8,414.7c-0.3,0-0.7,0-1,0c-0.5,0-0.7-0.3-0.6-0.8c0.6-3.3,1.8-6.3,4-8.7c1.4-1.5,2.9-2.6,4.8-3.2
				c1.2-0.4,2.5-0.4,3.7-0.6c0.2,0,0.5,0,0.7,0c0.4,0,0.4-0.2,0.3-0.6c-1-2.9-2.1-5.8-3.1-8.7c-0.2-0.7-0.5-1.3-0.7-2
				c-0.2-0.7-0.1-0.8,0.5-0.7c0.5,0,1,0.1,1.5,0c0.7-0.1,1.1,0.3,1.3,1c0.6,1.7,1.1,3.4,1.7,5c0.6,1.6,1.1,3.2,1.7,4.8
				c0.6,1.7,1.2,3.5,1.8,5.2c0.7,2,1.5,4.1,2.2,6.1c0.3,0.8,0.6,1.6,0.9,2.4c0.2,0.6,0.1,0.8-0.5,0.8c-0.5,0-0.9-0.1-1.4,0
				c-0.7,0.1-1.1-0.3-1.3-1c-0.8-2.4-1.6-4.8-2.5-7.1c-0.2-0.5-0.4-0.9-0.5-1.4c-0.2-0.8-0.8-0.9-1.5-0.9c-2.9-0.1-5.5,0.8-7.6,3.1
				c-1.6,1.7-2.3,4-2.6,6.4c-0.1,0.9-0.1,0.9-0.9,0.9C187.3,414.7,187,414.7,186.8,414.7z"/>
			<text transform="matrix(1 0 0 1 194.0801 414.144)" class="st0 st1 st2"> LLIANCE</text>
		</g>
		<text transform="matrix(1 0 0 1 233.1685 325.0796)"><tspan x="0" y="0" class="st0 st1 st2">CIVIC</tspan><tspan x="1" y="44.5" class="st0 st1 st2">DATA</tspan></text>
	</g>
	<text transform="matrix(1 0 0 1 185.1167 466.9224)"><tspan x="0" y="0" class="st3 st4 st5">All The Data For </tspan><tspan x="19" y="25.9" class="st3 st4 st5">We The People</tspan></text>
</g>
</svg>
