<svg xmlns="http://www.w3.org/2000/svg" viewBox="0 0 414.52 128.99"><defs><style>.cls-1{fill:#fbfbe6;}.cls-2{font-size:52.78px;fill:#342d1d;font-family:AvenirNext-UltraLight, Avenir Next;letter-spacing:0.01em;}.cls-3{letter-spacing:-0.02em;}.cls-4{letter-spacing:-0.05em;}.cls-5{letter-spacing:-0.01em;}.cls-6{font-size:36.28px;font-family:AvenirNext-Heavy, Avenir Next;letter-spacing:0.4em;}.cls-10,.cls-7{fill:#ed2024;}.cls-12,.cls-8{fill:#2d2e30;}.cls-11,.cls-9{fill:#3bc1c9;}.cls-10,.cls-11,.cls-12{opacity:0.5;isolation:isolate;}</style></defs><title>Asset 6</title><g id="Layer_2" data-name="Layer 2"><g id="Layer_1-2" data-name="Layer 1"><rect class="cls-1" width="414.52" height="128.99" rx="12" ry="12"/><text class="cls-2" transform="translate(106.96 66.52)">CIVIC <tspan class="cls-3" x="148.2" y="0">D</tspan><tspan class="cls-4" x="187.88" y="0">AT</tspan><tspan class="cls-5" x="245.83" y="0">A</tspan><tspan class="cls-6"><tspan x="-3.52" y="35.18">ALLIANCE</tspan></tspan></text><path class="cls-7" d="M25.82,46.31c2.88-2,6-3.62,9.06-5.37,6.66-3.88,13.33-7.7,20-11.55a1.56,1.56,0,0,1,1.78-.16C66.3,34.86,76,40.42,85.64,46c.17.1.26.32.39.49-.29.87-1.1,1.19-1.81,1.61-8.83,5-17.6,10.23-26.43,15.28a3.57,3.57,0,0,1-1.82.68,8.81,8.81,0,0,1-3.1-1.49c-8.48-4.92-17-9.81-25.4-14.76C26.85,47.38,26,47.19,25.82,46.31Z"/><path class="cls-8" d="M56,63.75l26-15c1.33-.78,2.69-1.52,4-2.3,0,1.72.1,3.4.1,5.11,0,9.39,0,18.74,0,28.12A2.25,2.25,0,0,1,84.8,82C75.87,87.08,66.94,92.26,58,97.4c-.68.39-1.35.71-2,1.07a2.88,2.88,0,0,1-.68-2.3V66.08C55.36,65.24,55.29,64.37,56,63.75Z"/><path class="cls-9" d="M56,63.75c0,11.55,0,23.14,0,34.69-2.78-1-5.18-2.75-7.73-4.21C41.12,90.15,34,86,26.82,81.87A1.93,1.93,0,0,1,25.59,80c0-10.84,0-21.71,0-32.55,0-.38.13-.74.17-1.13Q38.6,53.69,51.41,61.1,53.74,62.41,56,63.75Z"/><path class="cls-10" d="M25.2,40.68c2.88-2,6-3.62,9.06-5.37,6.67-3.88,13.33-7.7,20-11.55A1.55,1.55,0,0,1,56,23.6c9.64,5.63,19.35,11.19,29,16.79a2,2,0,0,1,.39.49c-.29.87-1.1,1.19-1.81,1.61-8.84,5-17.61,10.23-26.44,15.28a3.5,3.5,0,0,1-1.81.68A8.86,8.86,0,0,1,52.25,57c-8.47-4.92-17-9.81-25.4-14.76C26.24,41.78,25.43,41.56,25.2,40.68Z"/><path class="cls-11" d="M51.7,67.54c0,11.55,0,23.13,0,34.68-2.78-1-5.17-2.75-7.73-4.2-7.18-4.08-14.3-8.25-21.48-12.36a2,2,0,0,1-1.23-1.88c0-10.84,0-21.71,0-32.55,0-.39.13-.74.16-1.13C30,55,38.57,60,47.11,64.88,48.66,65.76,50.18,66.66,51.7,67.54Z"/><path class="cls-12" d="M60.31,67.47l26-15c1.33-.78,2.69-1.52,4-2.3,0,1.72.09,3.4.09,5.11,0,9.39,0,18.74,0,28.12a2.25,2.25,0,0,1-1.35,2.3C80.18,90.8,71.25,96,62.35,101.12c-.68.39-1.36.71-2,1.07a2.88,2.88,0,0,1-.68-2.3V69.8C59.66,68.93,59.6,68.09,60.31,67.47Z"/></g></g></svg>