<svg xmlns="http://www.w3.org/2000/svg" viewBox="0 0 216.15 216.15"><defs><style>.cls-1,.cls-6{fill:#342d1d;}.cls-1{stroke:#ffcd09;stroke-width:5px;}.cls-1,.cls-13{stroke-miterlimit:10;}.cls-2{fill:#f68b1f;}.cls-3{fill:#f15a22;}.cls-13,.cls-4{fill:#ed1c24;}.cls-5,.cls-8{fill:#fbfbe6;}.cls-7{fill:#5b5a8e;}.cls-8{font-size:15.79px;font-family:AvenirNext-UltraLight, Avenir Next;letter-spacing:0.01em;}.cls-9{letter-spacing:-0.02em;}.cls-10{letter-spacing:-0.05em;}.cls-11{letter-spacing:-0.01em;}.cls-12{font-size:10.86px;font-family:AvenirNext-Heavy, Avenir Next;letter-spacing:0.4em;}.cls-13{stroke:#ed1c24;stroke-width:2px;}.cls-14,.cls-17{fill:#ed2024;}.cls-15,.cls-19{fill:#2d2e30;}.cls-16,.cls-18{fill:#3bc1c9;}.cls-17,.cls-18,.cls-19{opacity:0.5;isolation:isolate;}.cls-20{font-size:10.55px;font-family:AvenirNext-Bold, Avenir Next;font-weight:700;}.cls-20,.cls-21{fill:#ffcd09;}</style></defs><title>Asset 3</title><g id="Layer_2" data-name="Layer 2"><g id="Layer_1-2" data-name="Layer 1"><circle class="cls-1" cx="108.08" cy="108.08" r="105.58"/><path class="cls-2" d="M27.13,108.58a80.44,80.44,0,0,1,160.88,0Z"/><path class="cls-3" d="M155.85,44.24H59.29a80.32,80.32,0,0,0-32.16,64.34H188A80.29,80.29,0,0,0,155.85,44.24Z"/><path class="cls-4" d="M34.46,75a80.07,80.07,0,0,0-7.33,33.57H188A80.07,80.07,0,0,0,180.69,75Z"/><circle class="cls-5" cx="89.01" cy="109.47" r="52.06"/><path class="cls-6" d="M188,109a80.44,80.44,0,0,1-160.88,0Z"/><path class="cls-7" d="M209.66,135.37l-.25-.31.25-1.27-.25-1.31-.62-.55H208l-1.29.91-1,.09-.89.35-.89,1.25-1.26.38-1.38,2-1.13.25-2.14-.51-.75,1.13-1,.24-.38-1.37-1.13-1-2.27-.13-2.37-1.38-1.89.24-1.75,1-.89,1.51-1.51-.51-1.76-.51-.51-1.51-1.38-.75-.37-1.25-.89-.51-1.38-.69h-4.49l-1.91-.55-2.13-.63h-.73l-.4-1.82.24-1.77-1.51-2-.88-2.43-1.14-.8h-1.6l-.66-.88-.63-1.16-.75-1.51-1.75.49-1.38.76-1.62.75-1.14-.62-1.13-.8L153,116.85H152l-.59.78-1.14.46-.62.49-1.51.76.76,2.37.75,1.25-.75,1.37-.52,1.25,1.14.75,1-.13.89.51-.38,1.13-.89.76.38,1.75-.63.14-1.37-.14-1,.51-1,.25-1.13-.38L143.2,132l-1.88,1.44-1.27,1.07h-1.49l-1.26-1.34-1.14-1-1.42.67-1.38-.14-1.75.38-.62,1.51.75,1.51v2l.45,1.66-1,1.51L129.86,143l-1.36.78h-1.31l-1.55,1.89-.83,1.57V149l-1.28,1-1.36.62-2-.38-1,1.27v1.35l-.77.91-1.14,2,.27,2.27-.76,2-.48.75-1.89.76-1.13,1.13-1.25-1.13-1.13-1-1.62.13-2-1-1.13-1.13.13-1.89-.25-1.13-2.13-1.62-.62.51,1,1,.38.88-1.27-.13-.89,1.13-.89-.88-1,.13.13,1,.51.75-.51,1-1.76.14-.51,2.88.89,1.14-.75,1.13-2-.13-.38,1.91-.76,1-1.13-1,.51-1-.62-.62-1.51.62-.89-.24L91,163.82l-.51-1.13-.38-.75-.62-.52-1,.89-.51.78-1.38.78H85.17l-1.36.64-1,.69v1l-1.26,2.47-1,1.27-.87-1.27-.86-1.27-1.76-1.11-2.75-1.26-1.25-1-1.51-.51-1.88.51-1.38.62-1.51-1-.25-1.08H65.6l-.82,2.08,1.13,1.11.51,1.63-1.53.48-1.42-.26v-1.47l.44-.49H61.8l-2.64.65-.93-1.07-1.07-.89-1.13,1-.62,1.89,1.13.51L56,169.07l-.62.88-1-.24-1-.62-1.62.51v1.69l-1.69,1-1.42,2.27v2.28l1.51,1.87,1.28.62.27,1.11L51,181.81H49.39l-3,.56-2.14.6-1.62,1.24-1.13-.64-1.75.75L39,186.21l-.59,1.07a105.59,105.59,0,0,0,171.28-51.91Z"/><text class="cls-8" transform="translate(83.45 128.97)">CIVIC <tspan class="cls-9" x="44.35" y="0">D</tspan><tspan class="cls-10" x="56.22" y="0">AT</tspan><tspan class="cls-11" x="73.57" y="0">A</tspan><tspan class="cls-12"><tspan x="-1.05" y="10.53">ALLIANCE</tspan></tspan></text><line class="cls-13" x1="48.96" y1="145.9" x2="167.56" y2="145.9"/><path class="cls-5" d="M49.33,127.25c0-2,.05-4,0-6a2.2,2.2,0,0,1,1.27-2.14c3.34-1.93,6.69-3.84,10-5.81a2.82,2.82,0,0,1,3.21.26c1.85,1.11,3.73,2.17,5.59,3.25,1.47.85,3,1.67,4.42,2.56a1.71,1.71,0,0,1,.85,1.51c0,4.21,0,8.41,0,12.61a2.14,2.14,0,0,1-1.36,1.88c-2.91,1.66-5.8,3.35-8.69,5l-1.38.79a2.22,2.22,0,0,1-2.35.05q-2.74-1.56-5.48-3.13c-1.61-.93-3.21-1.89-4.84-2.8a2.11,2.11,0,0,1-1.24-2.08C49.38,131.24,49.33,129.25,49.33,127.25Z"/><path class="cls-14" d="M53.18,122c.86-.6,1.8-1.09,2.71-1.61l6-3.46a.5.5,0,0,1,.54,0c2.88,1.69,5.79,3.35,8.67,5,0,0,.08.1.12.14-.09.27-.33.36-.54.49-2.65,1.5-5.27,3.06-7.91,4.57a1,1,0,0,1-.55.2,2.66,2.66,0,0,1-.93-.44l-7.6-4.42C53.49,122.35,53.24,122.29,53.18,122Z"/><path class="cls-15" d="M62.21,127.25l7.79-4.5,1.2-.69c0,.52,0,1,0,1.53,0,2.81,0,5.61,0,8.42a.68.68,0,0,1-.41.69l-8,4.61c-.2.12-.4.22-.61.32A.85.85,0,0,1,62,137v-9C62,127.69,62,127.43,62.21,127.25Z"/><path class="cls-16" d="M62.21,127.25c0,3.45,0,6.92,0,10.37a15.6,15.6,0,0,1-2.31-1.25c-2.15-1.22-4.28-2.47-6.43-3.7a.59.59,0,0,1-.37-.56q0-4.87,0-9.74c0-.12,0-.23.05-.34l7.67,4.42C61.3,126.71,61.76,127,62.21,127.25Z"/><path class="cls-17" d="M53,120.34c.86-.6,1.8-1.08,2.71-1.61,2-1.16,4-2.3,6-3.45a.45.45,0,0,1,.53,0l8.68,5a.42.42,0,0,1,.11.15c-.08.26-.32.36-.54.48-2.64,1.5-5.27,3.06-7.91,4.57a1,1,0,0,1-.54.21,2.51,2.51,0,0,1-.93-.45c-2.54-1.47-5.07-2.93-7.6-4.41C53.31,120.67,53.06,120.6,53,120.34Z"/><path class="cls-18" d="M60.93,128.38v10.38a16.18,16.18,0,0,1-2.31-1.26c-2.15-1.22-4.28-2.47-6.43-3.7a.59.59,0,0,1-.37-.56q0-4.87,0-9.74c0-.12,0-.22.05-.34l7.67,4.42Z"/><path class="cls-19" d="M63.5,128.36l7.79-4.49c.39-.24.8-.46,1.2-.69,0,.51,0,1,0,1.53v8.41a.67.67,0,0,1-.4.69l-8,4.62-.61.32a.88.88,0,0,1-.2-.69v-9C63.31,128.79,63.29,128.54,63.5,128.36Z"/><text class="cls-20" transform="matrix(-0.86, -0.52, 0.52, -0.86, 65.26, 186.37)">C</text><text class="cls-20" transform="translate(58.22 182.02) rotate(-144.9)">I</text><text class="cls-20" transform="matrix(-0.78, -0.63, 0.63, -0.78, 54.7, 179.58)">V</text><text class="cls-20" transform="matrix(-0.73, -0.68, 0.68, -0.73, 48.46, 174.39)">I</text><text class="cls-20" transform="matrix(-0.68, -0.73, 0.73, -0.68, 45.3, 171.48)">C</text><text class="cls-20" transform="matrix(-0.63, -0.78, 0.78, -0.63, 39.74, 165.33)"> </text><text class="cls-20" transform="matrix(-0.57, -0.82, 0.82, -0.57, 37.45, 162.6)">D</text><text class="cls-20" transform="matrix(-0.49, -0.87, 0.87, -0.49, 32.44, 155.36)">A</text><text class="cls-20" transform="matrix(-0.42, -0.91, 0.91, -0.42, 28.57, 148.39)">T</text><text class="cls-20" transform="matrix(-0.34, -0.94, 0.94, -0.34, 25.88, 142.59)">A</text><text class="cls-20" transform="matrix(-0.28, -0.96, 0.96, -0.28, 23.09, 134.61)"> </text><text class="cls-20" transform="matrix(-0.21, -0.98, 0.98, -0.21, 22.09, 131.37)">A</text><text class="cls-20" transform="matrix(-0.13, -0.99, 0.99, -0.13, 20.35, 122.98)">L</text><text class="cls-20" transform="translate(19.55 116.55) rotate(-93.22)">L</text><text class="cls-20" transform="translate(19.22 110.06) rotate(-89.07)">I</text><text class="cls-20" transform="translate(19.21 105.78) rotate(-85.65)">A</text><text class="cls-20" transform="matrix(0.18, -0.98, 0.98, 0.18, 19.89, 97.21)">N</text><text class="cls-20" transform="matrix(0.27, -0.96, 0.96, 0.27, 21.58, 88.16)">C</text><text class="cls-20" transform="translate(23.88 80.26) rotate(-69.12)">E</text><text class="cls-20" transform="translate(26.59 73.41) rotate(-65.54)"> </text><text class="cls-20" transform="translate(28.11 70.11) rotate(-63.21)">|</text><text class="cls-20" transform="translate(29.72 66.97) rotate(-60.88)"> </text><text class="cls-20" transform="matrix(0.54, -0.84, 0.84, 0.54, 31.31, 64)">A</text><text class="cls-20" transform="matrix(0.61, -0.79, 0.79, 0.61, 36.06, 56.82)">L</text><text class="cls-20" transform="translate(40.05 51.73) rotate(-48.01)">L</text><text class="cls-20" transform="translate(44.28 47.12) rotate(-44.91)"> </text><text class="cls-20" transform="translate(46.63 44.73) rotate(-41.63)">T</text><text class="cls-20" transform="translate(51.88 40.06) rotate(-36.47)">H</text><text class="cls-20" transform="translate(59.12 34.81) rotate(-31.22)">E</text><text class="cls-20" transform="translate(65.45 31.07) rotate(-27.67)"> </text><text class="cls-20" transform="translate(68.58 29.36) rotate(-23.54)">D</text><text class="cls-20" transform="matrix(0.95, -0.31, 0.31, 0.95, 76.68, 25.88)">A</text><text class="cls-20" transform="matrix(0.97, -0.23, 0.23, 0.97, 84.27, 23.46)">T</text><text class="cls-20" transform="translate(90.49 21.98) rotate(-8.58)">A</text><text class="cls-20" transform="translate(98.87 20.83) rotate(-4.74)"> </text><text class="cls-20" transform="translate(102.43 20.51) rotate(-1.34)">F</text><text class="cls-20" transform="matrix(1, 0.07, -0.07, 1, 109.4, 20.32)">O</text><text class="cls-20" transform="matrix(0.99, 0.17, -0.17, 0.99, 119.22, 21.1)">R</text><text class="cls-20" transform="matrix(0.97, 0.23, -0.23, 0.97, 127.04, 22.55)"> </text><text class="cls-20" transform="matrix(0.95, 0.32, -0.32, 0.95, 130.39, 23.21)">W</text><text class="cls-20" transform="translate(141.41 27.06) rotate(24.61)">E</text><text class="cls-20" transform="translate(148.07 30.21) rotate(28.19)"> </text><text class="cls-20" transform="matrix(0.85, 0.52, -0.52, 0.85, 151.01, 31.75)">T</text><text class="cls-20" transform="translate(157.03 35.43) rotate(36.66)">H</text><text class="cls-20" transform="translate(164.16 40.84) rotate(41.9)">E</text><text class="cls-20" transform="translate(169.57 45.81) rotate(45.43)"> </text><text class="cls-20" transform="translate(172.1 48.33) rotate(49.06)">P</text><text class="cls-20" transform="matrix(0.59, 0.81, -0.81, 0.59, 177.09, 54.16)">E</text><text class="cls-20" transform="matrix(0.51, 0.86, -0.86, 0.51, 181.41, 60.04)">O</text><text class="cls-20" transform="translate(186.33 68.56) rotate(65.13)">P</text><text class="cls-20" transform="matrix(0.35, 0.94, -0.94, 0.35, 189.5, 75.54)">L</text><text class="cls-20" transform="translate(191.72 81.64) rotate(74.26)">E</text><text class="cls-20" transform="translate(193.63 88.74) rotate(77.83)"> </text><text class="cls-20" transform="translate(194.37 92.26) rotate(80.14)">|</text><text class="cls-20" transform="translate(194.96 95.73) rotate(82.46)"> </text><text class="cls-20" transform="matrix(0.06, 1, -1, 0.06, 195.47, 99.29)">C</text><text class="cls-20" transform="translate(195.93 107.53) rotate(90.93)">f</text><text class="cls-20" transform="translate(195.91 112.3) rotate(94.74)">A</text><text class="cls-20" transform="translate(195.1 120.71) rotate(98.57)"> </text><text class="cls-20" transform="translate(194.59 124.26) rotate(102.08)">S</text><text class="cls-20" transform="translate(193.1 131.24) rotate(107.24)">U</text><text class="cls-20" transform="translate(190.54 139.5) rotate(113.64)">M</text><text class="cls-20" transform="matrix(-0.51, 0.86, -0.86, -0.51, 186.12, 149.49)">M</text><text class="cls-20" transform="translate(180.35 158.83) rotate(125.68)">I</text><text class="cls-20" transform="translate(177.86 162.32) rotate(129.34)">T</text><text class="cls-20" transform="translate(173.47 167.57) rotate(132.63)"> </text><text class="cls-20" transform="matrix(-0.72, 0.69, -0.69, -0.72, 171.07, 170.23)">2</text><text class="cls-20" transform="translate(165.46 175.53) rotate(141.26)">0</text><text class="cls-20" transform="matrix(-0.83, 0.56, -0.56, -0.83, 159.43, 180.32)">1</text><text class="cls-20" transform="translate(152.98 184.59) rotate(151.25)">8</text><polygon class="cls-21" points="129.49 150.24 132.09 155.49 137.89 156.34 133.69 160.43 134.68 166.21 129.49 163.48 124.3 166.21 125.29 160.43 121.09 156.34 126.9 155.49 129.49 150.24"/></g></g></svg>