<svg xmlns="http://www.w3.org/2000/svg" viewBox="0 0 207.01 207.01"><defs><style>.cls-1,.cls-5{stroke:#ffcd09;}.cls-1,.cls-2,.cls-3,.cls-4,.cls-5{stroke-miterlimit:10;}.cls-1{stroke-width:5px;}.cls-2{font-size:10.1px;font-family:AvenirNext-Regular, Avenir Next;}.cls-2,.cls-3,.cls-4{fill:#ffcd09;stroke:#fff;}.cls-3,.cls-4,.cls-5{stroke-width:3px;}.cls-3{opacity:0.5;isolation:isolate;}.cls-5{fill:none;}</style></defs><title>Asset 1</title><g id="Layer_2" data-name="Layer 2"><g id="Layer_1-2" data-name="Layer 1"><circle class="cls-1" cx="103.51" cy="103.51" r="101.01"/><text class="cls-2" transform="translate(57.82 174.7) rotate(-144.8)">C</text><text class="cls-2" transform="matrix(-0.78, -0.63, 0.63, -0.78, 51.21, 169.9)">I</text><text class="cls-2" transform="translate(48.46 167.7) rotate(-137.24)">V</text><text class="cls-2" transform="translate(43.24 162.76) rotate(-133.63)">I</text><text class="cls-2" transform="matrix(-0.64, -0.77, 0.77, -0.64, 40.78, 160.25)">C</text><text class="cls-2" transform="matrix(-0.59, -0.81, 0.81, -0.59, 35.67, 153.91)"> </text><text class="cls-2" transform="translate(33.62 151.17) rotate(-121.76)">D</text><text class="cls-2" transform="translate(29.31 144.14) rotate(-116.36)">A</text><text class="cls-2" transform="matrix(-0.37, -0.93, 0.93, -0.37, 26.09, 137.55)">T</text><text class="cls-2" transform="matrix(-0.3, -0.95, 0.95, -0.3, 23.84, 131.98)">A</text><text class="cls-2" transform="translate(21.63 124.52) rotate(-103.49)"> </text><text class="cls-2" transform="translate(20.83 121.39) rotate(-99.75)">A</text><text class="cls-2" transform="translate(19.56 113.56) rotate(-95.02)">L</text><text class="cls-2" transform="translate(19.06 107.55) rotate(-90.97)">L</text><text class="cls-2" transform="translate(19.02 101.48) rotate(-87.78)">I</text><text class="cls-2" transform="matrix(0.11, -0.99, 0.99, 0.11, 19.11, 97.98)">A</text><text class="cls-2" transform="matrix(0.2, -0.98, 0.98, 0.2, 19.97, 90.12)">N</text><text class="cls-2" transform="matrix(0.3, -0.95, 0.95, 0.3, 21.75, 81.75)">C</text><text class="cls-2" transform="translate(24.23 74.03) rotate(-67.56)">E</text><text class="cls-2" transform="translate(26.94 67.69) rotate(-64.03)"> </text><text class="cls-2" transform="matrix(0.47, -0.88, 0.88, 0.47, 28.48, 64.58)">|</text><text class="cls-2" transform="translate(29.99 61.79) rotate(-59.52)"> </text><text class="cls-2" transform="translate(31.59 58.97) rotate(-55.79)">A</text><text class="cls-2" transform="matrix(0.63, -0.78, 0.78, 0.63, 36.1, 52.47)">L</text><text class="cls-2" transform="translate(39.93 47.78) rotate(-47.01)">L</text><text class="cls-2" transform="matrix(0.72, -0.69, 0.69, 0.72, 43.93, 43.57)"> </text><text class="cls-2" transform="matrix(0.76, -0.65, 0.65, 0.76, 46.19, 41.34)">T</text><text class="cls-2" transform="matrix(0.81, -0.58, 0.58, 0.81, 51.21, 37.03)">H</text><text class="cls-2" transform="translate(57.83 32.34) rotate(-30.72)">E</text><text class="cls-2" transform="matrix(0.89, -0.46, 0.46, 0.89, 63.77, 28.9)"> </text><text class="cls-2" transform="translate(66.78 27.29) rotate(-23.17)">D</text><text class="cls-2" transform="translate(74.39 24.07) rotate(-17.72)">A</text><text class="cls-2" transform="translate(81.37 21.88) rotate(-13.18)">T</text><text class="cls-2" transform="translate(87.24 20.49) rotate(-8.62)">A</text><text class="cls-2" transform="translate(94.94 19.42) rotate(-4.89)"> </text><text class="cls-2" transform="translate(98.35 19.11) rotate(-1.54)">F</text><text class="cls-2" transform="translate(104.89 18.91) rotate(3.79)">O</text><text class="cls-2" transform="translate(114.27 19.63) rotate(9.3)">R</text><text class="cls-2" transform="translate(121.1 20.83) rotate(12.82)"> </text><text class="cls-2" transform="translate(124.33 21.44) rotate(17.54)">W</text><text class="cls-2" transform="translate(134.43 24.78) rotate(23.5)">E</text><text class="cls-2" transform="translate(140.71 27.6) rotate(27.01)"> </text><text class="cls-2" transform="matrix(0.86, 0.5, -0.5, 0.86, 143.55, 29.02)">T</text><text class="cls-2" transform="matrix(0.82, 0.58, -0.58, 0.82, 149.26, 32.36)">H</text><text class="cls-2" transform="matrix(0.76, 0.65, -0.65, 0.76, 155.85, 37.1)">E</text><text class="cls-2" transform="translate(161.03 41.6) rotate(43.76)"> </text><text class="cls-2" transform="matrix(0.68, 0.73, -0.73, 0.68, 163.53, 43.96)">P</text><text class="cls-2" transform="translate(168.08 48.91) rotate(51.77)">E</text><text class="cls-2" transform="translate(172.31 54.24) rotate(57.25)">O</text><text class="cls-2" transform="matrix(0.46, 0.89, -0.89, 0.46, 177.32, 62.24)">P</text><text class="cls-2" transform="translate(180.36 68.24) rotate(67.07)">L</text><text class="cls-2" transform="translate(182.69 73.79) rotate(71.46)">E</text><text class="cls-2" transform="translate(184.81 80.35) rotate(74.99)"> </text><text class="cls-2" transform="translate(185.68 83.68) rotate(77.25)">|</text><text class="cls-2" transform="translate(186.36 86.79) rotate(79.51)"> </text><text class="cls-2" transform="matrix(0.11, 0.99, -0.99, 0.11, 187.03, 90.13)">C</text><text class="cls-2" transform="translate(187.86 98.24) rotate(87.48)">f</text><text class="cls-2" transform="translate(188.07 102.12) rotate(91.43)">A</text><text class="cls-2" transform="matrix(-0.09, 1, -1, -0.09, 187.78, 109.89)"> </text><text class="cls-2" transform="matrix(-0.15, 0.99, -0.99, -0.15, 187.5, 113.3)">S</text><text class="cls-2" transform="translate(186.52 119.77) rotate(103.47)">U</text><text class="cls-2" transform="translate(184.66 127.56) rotate(109.54)">M</text><text class="cls-2" transform="translate(181.35 136.73) rotate(116.18)">M</text><text class="cls-2" transform="translate(176.89 145.46) rotate(120.7)">I</text><text class="cls-2" transform="matrix(-0.56, 0.83, -0.83, -0.56, 175.1, 148.5)">T</text><text class="cls-2" transform="translate(171.43 153.8) rotate(127.41)"> </text><text class="cls-2" transform="matrix(-0.65, 0.76, -0.76, -0.65, 169.38, 156.52)">2</text><text class="cls-2" transform="translate(164.96 161.58) rotate(135.36)">0</text><text class="cls-2" transform="translate(160.13 166.3) rotate(139.91)">1</text><text class="cls-2" transform="translate(154.96 170.61) rotate(144.45)">8</text><path class="cls-3" d="M55.45,68.08c4.62-3.23,9.67-5.77,14.52-8.61Q86,50.17,102,41c.92-.53,1.68-1,2.84-.29q23.22,13.48,46.44,26.88c.24.14.39.53.63.77-.48,1.39-1.73,1.92-2.89,2.59-14.18,8-28.17,16.35-42.31,24.43a5.32,5.32,0,0,1-2.93,1.1c-1.92-.24-3.36-1.44-5-2.4C85.26,86.15,71.65,78.36,58.14,70.43,57.13,69.81,55.79,69.47,55.45,68.08Z"/><path class="cls-4" d="M57.71,77.11c4.42-3.07,9.18-5.48,13.8-8.17C81.65,63,91.8,57.21,101.94,51.34c.87-.52,1.59-.91,2.7-.24,14.71,8.56,29.42,17,44.13,25.53a2.87,2.87,0,0,1,.58.73c-.43,1.34-1.68,1.82-2.74,2.45-13.46,7.64-26.78,15.53-40.2,23.22a5.81,5.81,0,0,1-2.78,1.06c-1.83-.24-3.22-1.4-4.72-2.26C86,94.33,73.1,86.92,60.26,79.37,59.3,78.8,58.05,78.46,57.71,77.11Z"/><path class="cls-4" d="M107,107q19.83-11.4,39.62-22.84c2-1.15,4.09-2.31,6.1-3.51,0,2.6.15,5.2.15,7.79,0,14.28,0,28.51,0,42.79a3.46,3.46,0,0,1-2.07,3.51c-13.61,7.74-27.16,15.63-40.72,23.46-1,.58-2.07,1.06-3.13,1.59a4.46,4.46,0,0,1-1.06-3.51V110.53C106,109.28,105.89,108,107,107Z"/><path class="cls-4" d="M100.31,108.13q0,26.38,0,52.79c-4.23-1.54-7.89-4.23-11.73-6.4-10.92-6.2-21.78-12.55-32.7-18.8a2.93,2.93,0,0,1-1.87-2.88c0-16.54,0-33,0-49.57a11.54,11.54,0,0,1,.28-1.73l39,22.5C95.69,105.43,98,106.78,100.31,108.13Z"/><path class="cls-3" d="M92.66,113.9q0,26.39,0,52.79c-4.23-1.54-7.88-4.24-11.73-6.4-10.91-6.2-21.78-12.55-32.69-18.8a2.94,2.94,0,0,1-1.88-2.88c.05-16.54.05-33,.05-49.57a10.25,10.25,0,0,1,.29-1.73l39,22.5C88.05,111.2,90.36,112.55,92.66,113.9Z"/><path class="cls-3" d="M114.68,113.8c13.23-7.6,26.4-15.24,39.62-22.84,2-1.15,4.09-2.31,6.11-3.51.05,2.6.14,5.19.14,7.79,0,14.28,0,28.51,0,42.79a3.47,3.47,0,0,1-2.07,3.51c-13.6,7.74-27.16,15.63-40.72,23.46-1,.58-2.07,1.06-3.13,1.59a4.46,4.46,0,0,1-1.05-3.51V117.31C113.67,116.06,113.58,114.71,114.68,113.8Z"/><circle class="cls-5" cx="103.51" cy="103.51" r="76.96"/></g></g></svg>