<svg xmlns="http://www.w3.org/2000/svg" viewBox="0 0 195.16 220.37"><defs><style>.cls-1{fill:#fff;}.cls-17,.cls-2,.cls-5,.cls-6{fill:none;}.cls-2,.cls-3,.cls-4{stroke:#342d1d;}.cls-15,.cls-17,.cls-2,.cls-3,.cls-4,.cls-5,.cls-6{stroke-miterlimit:10;}.cls-2{stroke-width:2px;stroke-dasharray:11.79 11.79;}.cls-13,.cls-15,.cls-3{fill:#342d1d;}.cls-3,.cls-4{stroke-width:4px;}.cls-12,.cls-4,.cls-7{fill:#ffcd09;}.cls-15,.cls-17,.cls-5,.cls-6{stroke:#ffcd09;}.cls-15,.cls-5,.cls-6{stroke-width:0.75px;}.cls-5{opacity:0.5;isolation:isolate;}.cls-7{font-size:22.34px;font-family:AvenirNext-UltraLight, Avenir Next;letter-spacing:0.01em;}.cls-8{letter-spacing:-0.02em;}.cls-9{letter-spacing:-0.05em;}.cls-10{letter-spacing:-0.01em;}.cls-11{font-size:15.36px;fill:#fbfbe6;font-family:AvenirNext-Heavy, Avenir Next;letter-spacing:0.1em;}.cls-13,.cls-16{font-size:5.59px;}.cls-13,.cls-15{font-family:AvenirNext-Bold, Avenir Next;font-weight:700;}.cls-13{letter-spacing:0.09em;}.cls-14{letter-spacing:0.08em;}.cls-15{font-size:8.38px;}.cls-16{font-family:AvenirNext-Italic, Avenir Next;font-style:italic;}.cls-17{stroke-width:3px;}</style></defs><title>Asset 2</title><g id="Layer_2" data-name="Layer 2"><g id="Layer_1-2" data-name="Layer 1"><path class="cls-1" d="M1.16,110.25C1.16,95,1.52,79.79,1,64.58.75,56.64,4.35,52,10.65,48.3,36.1,33.6,61.65,19,86.9,4c9-5.4,16.49-2.77,24.45,2C125.44,14.48,139.74,22.58,154,30.8c11.21,6.47,22.57,12.72,33.63,19.45a13.14,13.14,0,0,1,6.54,11.58c0,32,0,64,0,96,0,7.12-4.55,11.07-10.38,14.39-22.15,12.62-44.16,25.5-66.22,38.27-3.5,2-7,4-10.5,6-5.92,3.48-11.9,3.83-17.94.39Q68.19,205.05,47.35,193.1C35,186,22.85,178.7,10.46,171.74,4.13,168.19.78,163.66,1,155.92,1.5,140.71,1.16,125.48,1.16,110.25Z"/><path class="cls-2" d="M1.16,110.25C1.16,95,1.52,79.79,1,64.58.75,56.64,4.35,52,10.65,48.3,36.1,33.6,61.65,19,86.9,4c9-5.4,16.49-2.77,24.45,2C125.44,14.48,139.74,22.58,154,30.8c11.21,6.47,22.57,12.72,33.63,19.45a13.14,13.14,0,0,1,6.54,11.58c0,32,0,64,0,96,0,7.12-4.55,11.07-10.38,14.39-22.15,12.62-44.16,25.5-66.22,38.27-3.5,2-7,4-10.5,6-5.92,3.48-11.9,3.83-17.94.39Q68.19,205.05,47.35,193.1C35,186,22.85,178.7,10.46,171.74,4.13,168.19.78,163.66,1,155.92,1.5,140.71,1.16,125.48,1.16,110.25Z"/><path class="cls-3" d="M13.66,112.57c0-13.25.31-26.51-.13-39.75-.23-6.91,2.91-11,8.39-14.17,22.15-12.8,44.39-25.47,66.36-38.56,7.88-4.7,14.35-2.41,21.28,1.76,12.27,7.36,24.72,14.41,37.11,21.56,9.76,5.64,19.64,11.08,29.27,16.94a11.44,11.44,0,0,1,5.69,10.07c0,27.87,0,55.74,0,83.6,0,6.19-4,9.63-9,12.52-19.29,11-38.44,22.19-57.65,33.31-3,1.76-6.11,3.48-9.14,5.26-5.15,3-10.35,3.33-15.61.33Q72,195.09,53.86,184.68c-10.72-6.17-21.32-12.54-32.1-18.59-5.51-3.09-8.43-7-8.22-13.77C14,139.08,13.66,125.82,13.66,112.57Z"/><path class="cls-4" d="M13.66,95.81c0-13.25.31,6.54-.13-6.7-.23-6.91,2.91-11,8.39-14.17,22.15-12.8,44.39-25.47,66.36-38.56,7.88-4.7,14.35-2.41,21.28,1.76,12.27,7.36,24.72,14.41,37.11,21.56,9.76,5.64,19.64,11.08,29.27,16.94a11.44,11.44,0,0,1,5.69,10.07c0,27.87,0,37.12,0,65,0,6.2-4,9.64-9,12.52-19.29,11-38.44,22.2-57.65,33.32-3,1.76-6.11,3.47-9.14,5.25-5.15,3-10.35,3.33-15.61.34Q72,192.76,53.86,182.35c-10.72-6.17-21.32-12.53-32.1-18.59-5.51-3.09-8.43-7-8.22-13.77C14,136.75,13.66,109.06,13.66,95.81Z"/><path class="cls-3" d="M13.66,110.24c0-13.25.31,7.47-.13-5.77-.23-6.91,2.91-11,8.39-14.17C44.07,77.5,66.31,64.83,88.28,51.74c7.88-4.7,14.35-2.41,21.28,1.76,12.27,7.36,24.72,14.41,37.11,21.56,9.76,5.64,19.64,11.08,29.27,16.94a11.44,11.44,0,0,1,5.69,10.07c0,27.87,0,21.76,0,49.62,0,6.2-4,9.64-9,12.52-19.29,11-38.44,22.2-57.65,33.32-3,1.76-6.11,3.47-9.14,5.25-5.15,3-10.35,3.33-15.61.34Q72,192.76,53.86,182.35c-10.72-6.17-21.32-12.53-32.1-18.59-5.51-3.09-8.43-7-8.22-13.77C14,136.75,13.66,123.49,13.66,110.24Z"/><path class="cls-5" d="M74.37,79.77c2.23-1.56,4.67-2.79,7-4.16q7.74-4.5,15.47-8.94a1.17,1.17,0,0,1,1.37-.14q11.22,6.51,22.44,13c.11.07.18.26.3.37-.24.68-.84.93-1.4,1.26C112.71,85,106,89,99.13,92.94a2.68,2.68,0,0,1-1.42.53,6.26,6.26,0,0,1-2.39-1.16C88.77,88.5,82.19,84.74,75.67,80.9,75.18,80.6,74.53,80.44,74.37,79.77Z"/><path class="cls-6" d="M75.46,84.13c2.14-1.48,4.44-2.64,6.66-3.95,4.91-2.85,9.81-5.66,14.71-8.5a1.07,1.07,0,0,1,1.3-.11c7.1,4.13,14.21,8.22,21.32,12.33.11.07.18.23.28.35-.21.65-.82.88-1.33,1.18-6.5,3.7-12.93,7.51-19.41,11.22a2.86,2.86,0,0,1-1.35.51,6.17,6.17,0,0,1-2.28-1.09c-6.22-3.62-12.47-7.2-18.67-10.85C76.23,85,75.62,84.78,75.46,84.13Z"/><path class="cls-6" d="M99.26,98.58q9.58-5.51,19.14-11c1-.56,2-1.12,2.95-1.7,0,1.26.07,2.51.07,3.76q0,10.35,0,20.67a1.68,1.68,0,0,1-1,1.7c-6.58,3.74-13.13,7.55-19.68,11.33-.48.28-1,.51-1.51.77a2.18,2.18,0,0,1-.51-1.7V100.27A2.1,2.1,0,0,1,99.26,98.58Z"/><path class="cls-6" d="M96,99.11q0,12.75,0,25.5a39.77,39.77,0,0,1-5.67-3.08c-5.27-3-10.52-6.07-15.79-9.09a1.42,1.42,0,0,1-.91-1.39c0-8,0-16,0-23.94a4.91,4.91,0,0,1,.14-.84L92.69,97.14C93.81,97.81,94.92,98.46,96,99.11Z"/><path class="cls-5" d="M92.34,101.9q0,12.75,0,25.5a38.34,38.34,0,0,1-5.67-3.09c-5.27-3-10.52-6.06-15.79-9.08a1.42,1.42,0,0,1-.91-1.39c0-8,0-16,0-24a6,6,0,0,1,.14-.83C76.43,92.68,82.73,96.3,89,99.93,90.11,100.6,91.23,101.25,92.34,101.9Z"/><path class="cls-5" d="M103,101.85c6.39-3.67,12.75-7.36,19.14-11,1-.56,2-1.11,2.95-1.69,0,1.25.07,2.5.07,3.76,0,6.9,0,13.77,0,20.67a1.65,1.65,0,0,1-1,1.69c-6.57,3.74-13.12,7.55-19.67,11.34-.49.28-1,.51-1.51.77a2.17,2.17,0,0,1-.51-1.7V103.55A2.07,2.07,0,0,1,103,101.85Z"/><text class="cls-7" transform="translate(38.08 153.18)">CIVIC <tspan class="cls-8" x="62.73" y="0">D</tspan><tspan class="cls-9" x="79.53" y="0">AT</tspan><tspan class="cls-10" x="104.06" y="0">A</tspan><tspan class="cls-11"><tspan x="14.69" y="14.89">ALLIANCE</tspan></tspan></text><path class="cls-12" d="M89.07,187.79h4.87s.24.12.36,0,3.88.21,4,.14a7.6,7.6,0,0,1,2,0l4.87.17s.31-.35.5-.32a.35.35,0,0,1,.34-.08h.19a2.34,2.34,0,0,1,1.12-.37v-.17l.26-.33h.26l.42-.16v-.12l.13-.21v-.09l.14-.15.23-.12.14-.11v-.35l.3-.13.19-.16.13-.09.18-.1.21-.11.22-.08.22-.07.21-.15,1.26-1.19h-.25l-.12-.06h-.24l0-.17-.11-.06L111,183h-.1l-.1-.15h-.14l-.12-.1v-.12l0-.13-.06-.08,0-.1-.11-.14-.1-.1-.1-.06,0-.21-.15-.16-.1-.1v-.31l-.08-.07h-.11l0-.22,0-.13-.12-.13-.09-.1-.13-.07,0-.14h.12l.09-.24,0-.2,0-.35,0-.29,0-.29-.1-.24-.17-.22-.39-.15-.2-.07-.1-.12,0-.2,0-.1-.07-.08,0-.16,0-.17-.08-.07h-.1l-.17.12h-.12l-.12.05-.11.15-.16,0-.18.26-.14,0-.27-.07-.1.15-.12,0,0-.18-.15-.13h-.28l-.31-.18-.24,0-.22.13-.11.19-.2-.06-.22-.07-.06-.19-.18-.1-.05-.15-.11-.07-.17-.09h-.58l-.24-.07-.27-.08h-.09l0-.23,0-.22-.19-.26-.12-.31-.14-.1h-.2l-.09-.11-.08-.15-.09-.19-.23.06-.17.1-.21.09-.14-.08-.15-.1-.14-.17H101l-.08.1-.14.06-.08.07-.2.09.1.3.1.16-.1.18-.06.16.14.09.13,0,.11.07-.05.14-.11.1,0,.22-.08,0-.18,0-.13.07-.12,0-.15-.05-.27.16-.24.19-.16.13H99.3l-.16-.17-.14-.13-.18.08h-.18l-.22,0-.08.2.1.19v.25l0,.21-.12.19-.18.23-.17.1h-.16l-.2.24-.11.2v.23l-.16.12-.17.08-.26,0-.14.16v.17l-.09.12-.15.25,0,.29-.1.26-.06.09-.24.1-.15.14-.15-.14-.15-.13-.21,0-.25-.13-.14-.14v-.24l0-.15-.27-.2-.08.06.13.13,0,.11h-.16l-.12.14-.11-.11h-.13l0,.13.07.1-.07.12-.22,0-.07.37.12.14-.1.15-.26,0,0,.24-.1.13-.14-.13.06-.13-.08-.08-.19.08-.11,0-.1-.16-.06-.14,0-.1-.08-.07-.13.12-.06.1-.18.1h-.18l-.17.08-.13.08v.14l-.16.31-.13.16-.11-.16-.11-.16-.22-.14-.35-.16L91,181.5l-.19-.06-.24.06-.18.08-.19-.12,0-.14H90l-.1.27.14.14.07.2-.2.07-.18,0v-.19l.06-.06h-.27l-.34.08-.12-.13-.13-.11-.14.12-.08.24.14.07-.06.16-.08.11-.13,0-.13-.08-.2.06v.22l-.22.12-.18.29v.29l.19.24.17.08,0,.14-.09.18H88l-.38.07-.27.07-.21.16L87,184l-.22.1-.09.24-.12.2.08.24.18.31.12.22-.16.35-.16.06-.19,0-.29-.19-.3-.17-.62-.26-.3-.13h-.2l-.16.15-.2.13-.13.2-.14.19-.1.24V186l.19.14.08.15-.12.41-.15.12V187l.14.09,0,.13h-.22v0l-.09.12.09.25-.1.22V188l0,.12h-.13l-.12-.09-.14-.18h-.2V188l-.09.11-.06.19v.2h5.25l.08-.16,0-.16v-.24l-.08-.32.43,0,.38.05Z"/><text class="cls-13" transform="translate(97.75 184.83)">K<tspan class="cls-14" x="4.49" y="0">Y</tspan></text><text class="cls-15" transform="matrix(0.87, -0.5, 0.5, 0.87, 23.35, 86.35)">A</text><text class="cls-15" transform="matrix(0.87, -0.5, 0.5, 0.87, 30.1, 82.46)">L</text><text class="cls-15" transform="translate(35.38 79.41) rotate(-29.94)">L</text><text class="cls-15" transform="matrix(0.87, -0.5, 0.5, 0.87, 40.49, 76.47)"> </text><text class="cls-15" transform="translate(43.58 74.69) rotate(-29.97)">T</text><text class="cls-15" transform="translate(49.25 71.42) rotate(-30.02)">H</text><text class="cls-15" transform="matrix(0.87, -0.5, 0.5, 0.87, 56.24, 67.38)">E</text><text class="cls-15" transform="matrix(0.86, -0.5, 0.5, 0.86, 62.08, 63.99)"> </text><text class="cls-15" transform="matrix(0.86, -0.5, 0.5, 0.86, 65.36, 62.09)">D</text><text class="cls-15" transform="translate(72.23 58.08) rotate(-30.43)">A</text><text class="cls-15" transform="matrix(0.86, -0.51, 0.51, 0.86, 78.51, 54.38)">T</text><text class="cls-15" transform="translate(83.7 51.32) rotate(-30.76)">A</text><text class="cls-15" transform="matrix(0.86, 0.51, -0.51, 0.86, 108, 49.38)">W</text><text class="cls-15" transform="translate(116.09 54.19) rotate(30.38)">E</text><text class="cls-15" transform="matrix(0.86, 0.5, -0.5, 0.86, 121.19, 57.18)"> </text><text class="cls-15" transform="translate(123.54 58.55) rotate(30.05)">T</text><text class="cls-15" transform="translate(128.47 61.4) rotate(29.92)">H</text><text class="cls-15" transform="translate(134.72 64.99) rotate(29.88)">E</text><text class="cls-15" transform="translate(139.87 67.95) rotate(29.9)"> </text><text class="cls-15" transform="translate(142.4 69.41) rotate(29.98)">P</text><text class="cls-15" transform="translate(147.77 72.51) rotate(29.74)">E</text><text class="cls-15" transform="translate(152.9 75.43) rotate(29.64)">O</text><text class="cls-15" transform="matrix(0.87, 0.5, -0.5, 0.87, 159.8, 79.36)">P</text><text class="cls-15" transform="matrix(0.86, 0.5, -0.5, 0.86, 165.18, 82.45)">L</text><text class="cls-15" transform="translate(169.67 85.07) rotate(30.91)">E</text><text class="cls-16" transform="translate(94.66 44.49)">for</text><path class="cls-17" d="M16.79,118.57c0-12.72.29,7.16-.13-5.54-.22-6.64,2.79-10.56,8.06-13.6C46,87.14,67.33,75,88.43,62.41,96,57.9,102.2,60.1,108.85,64.09c11.78,7.07,23.73,13.84,35.62,20.71,9.38,5.41,18.86,10.63,28.1,16.26a11,11,0,0,1,5.47,9.67c0,26.75,0,12.84,0,39.59,0,6-3.81,9.25-8.67,12-18.52,10.54-36.9,21.3-55.34,32-2.92,1.69-5.86,3.34-8.77,5.05-5,2.9-9.94,3.2-15,.32q-17.44-9.94-34.86-19.94c-10.29-5.92-20.47-12-30.82-17.84-5.29-3-8.09-6.75-7.89-13.22C17.07,136,16.79,131.29,16.79,118.57Z"/></g></g></svg>