<?xml version="1.0" encoding="utf-8"?>
<!-- Generator: Adobe Illustrator 21.1.0, SVG Export Plug-In . SVG Version: 6.00 Build 0)  -->
<svg version="1.0" id="Layer_1" xmlns="http://www.w3.org/2000/svg" xmlns:xlink="http://www.w3.org/1999/xlink" x="0px" y="0px"
	 viewBox="0 0 612 792" style="enable-background:new 0 0 612 792;" xml:space="preserve">
<style type="text/css">
	.st0{fill:#ED2024;}
	.st1{fill:#2D2E30;}
	.st2{fill:#3BC1C9;}
	.st3{opacity:0.23;fill:#ED2024;}
	.st4{opacity:0.5;fill:#3BC1C9;}
	.st5{opacity:0.5;fill:#2D2E30;}
	.st6{font-family:'AvenirLTStd-Roman';}
	.st7{font-size:11.5311px;}
	.st8{letter-spacing:2;}
	.st9{opacity:0.15;fill:none;stroke:#000000;stroke-miterlimit:10;}
</style>
<g>
	<path class="st0" d="M268.3,336c3.9-2.7,8.2-4.9,12.4-7.3c9.1-5.3,18.2-10.5,27.3-15.8c0.8-0.5,1.4-0.8,2.4-0.2
		c13.2,7.6,26.3,15.2,39.5,22.9c0.2,0.1,0.3,0.4,0.5,0.7c-0.4,1.2-1.5,1.6-2.4,2.2c-12.1,6.8-24,13.9-36,20.8
		c-0.8,0.4-1.5,1-2.5,0.9c-1.6-0.2-2.9-1.2-4.2-2c-11.5-6.7-23.1-13.3-34.6-20.1C269.7,337.5,268.6,337.2,268.3,336z"/>
	<path class="st1" d="M309.4,359.8c11.8-6.8,23.6-13.6,35.5-20.5c1.8-1,3.6-2.1,5.5-3.1c0,2.3,0.1,4.6,0.1,7c0,12.8,0,25.5,0,38.3
		c0,1.5-0.5,2.4-1.8,3.1c-12.2,7-24.3,14-36.5,21c-0.9,0.5-1.9,1-2.8,1.4c-0.9-0.9-0.9-2-0.9-3.1c0-13.7,0-27.3,0-41
		C308.5,361.8,308.5,360.6,309.4,359.8z"/>
	<path class="st2" d="M309.4,359.8c0,15.8,0,31.5,0,47.3c-3.8-1.4-7-3.8-10.5-5.7c-9.8-5.5-19.5-11.3-29.3-16.8
		c-1.1-0.6-1.7-1.2-1.7-2.6c0.1-14.8,0-29.6,0-44.4c0-0.5,0.2-1,0.2-1.5c11.6,6.7,23.3,13.4,34.9,20.1
		C305.3,357.3,307.4,358.6,309.4,359.8z"/>
	<path class="st3" d="M267.5,328.3c3.9-2.7,8.2-4.9,12.4-7.3c9.1-5.3,18.2-10.5,27.3-15.8c0.8-0.5,1.4-0.8,2.4-0.2
		c13.2,7.6,26.3,15.2,39.5,22.9c0.2,0.1,0.3,0.4,0.5,0.7c-0.4,1.2-1.5,1.6-2.4,2.2c-12.1,6.8-24,13.9-36,20.8
		c-0.8,0.4-1.5,1-2.5,0.9c-1.6-0.2-2.9-1.2-4.2-2c-11.5-6.7-23.1-13.3-34.6-20.1C268.9,329.8,267.8,329.5,267.5,328.3z"/>
	<path class="st4" d="M303.6,364.9c0,15.8,0,31.5,0,47.3c-3.8-1.4-7-3.8-10.5-5.7c-9.8-5.5-19.5-11.3-29.3-16.8
		c-1.1-0.6-1.7-1.2-1.7-2.6c0.1-14.8,0-29.6,0-44.4c0-0.5,0.2-1,0.2-1.5c11.6,6.7,23.3,13.4,34.9,20.1
		C299.4,362.5,301.5,363.7,303.6,364.9z"/>
	<path class="st5" d="M315.3,364.8c11.8-6.8,23.6-13.6,35.5-20.5c1.8-1,3.6-2.1,5.5-3.1c0,2.3,0.1,4.6,0.1,7c0,12.8,0,25.5,0,38.3
		c0,1.5-0.5,2.4-1.8,3.1c-12.2,7-24.3,14-36.5,21c-0.9,0.5-1.9,1-2.8,1.4c-0.9-0.9-0.9-2-0.9-3.1c0-13.7,0-27.3,0-41
		C314.4,366.9,314.3,365.7,315.3,364.8z"/>
</g>
<g>
	<g>
		<path d="M272.2,480.3c-0.1,0-0.2,0-0.3,0c-0.2,0-0.2-0.1-0.2-0.3c0.2-1.1,0.6-2,1.2-2.8c0.4-0.5,0.9-0.8,1.5-1
			c0.4-0.1,0.8-0.1,1.1-0.2c0.1,0,0.2,0,0.2,0c0.1,0,0.1-0.1,0.1-0.2c-0.3-0.9-0.6-1.9-1-2.8c-0.1-0.2-0.2-0.4-0.2-0.6
			c-0.1-0.2,0-0.2,0.2-0.2c0.2,0,0.3,0,0.5,0c0.2,0,0.3,0.1,0.4,0.3c0.2,0.5,0.4,1.1,0.5,1.6c0.2,0.5,0.4,1,0.5,1.5
			c0.2,0.6,0.4,1.1,0.6,1.7c0.2,0.7,0.5,1.3,0.7,2c0.1,0.3,0.2,0.5,0.3,0.8c0.1,0.2,0,0.3-0.2,0.3c-0.1,0-0.3,0-0.4,0
			c-0.2,0-0.3-0.1-0.4-0.3c-0.3-0.8-0.5-1.5-0.8-2.3c0-0.1-0.1-0.3-0.2-0.4c-0.1-0.3-0.2-0.3-0.5-0.3c-0.9,0-1.7,0.2-2.4,1
			c-0.5,0.6-0.7,1.3-0.8,2c0,0.3,0,0.3-0.3,0.3C272.4,480.3,272.3,480.3,272.2,480.3z"/>
		<text transform="matrix(1 0 0 1 274.9963 480.354)" class="st6 st7 st8"> LLIANCE</text>
	</g>
	<text transform="matrix(1 0 0 1 287.7355 452.7952)"><tspan x="0" y="0" class="st6 st7 st8">CIVIC</tspan><tspan x="0.3" y="13.8" class="st6 st7 st8">DATA</tspan></text>
</g>
<rect x="216.3" y="269.9" class="st9" width="179.3" height="251.8"/>
</svg>
