<?xml version="1.0" encoding="utf-8"?>
<!-- Generator: Adobe Illustrator 21.1.0, SVG Export Plug-In . SVG Version: 6.00 Build 0)  -->
<svg version="1.0" id="Layer_1" xmlns="http://www.w3.org/2000/svg" xmlns:xlink="http://www.w3.org/1999/xlink" x="0px" y="0px"
	 viewBox="0 0 612 792" style="enable-background:new 0 0 612 792;" xml:space="preserve">
<style type="text/css">
	.st0{opacity:0.23;fill:none;stroke:#ED2024;stroke-miterlimit:10;}
	.st1{fill:none;stroke:#ED2024;stroke-miterlimit:10;}
	.st2{fill:none;stroke:#2D2E30;stroke-miterlimit:10;}
	.st3{fill:none;stroke:#3BC1C9;stroke-miterlimit:10;}
	.st4{opacity:0.5;fill:none;stroke:#3BC1C9;stroke-miterlimit:10;}
	.st5{opacity:0.5;fill:none;stroke:#2D2E30;stroke-miterlimit:10;}
	.st6{font-family:'Avenir65-Medium';}
	.st7{font-size:7.5623px;}
	.st8{letter-spacing:2;}
	.st9{opacity:0.15;fill:none;stroke:#000000;stroke-miterlimit:10;}
</style>
<g>
	<path class="st0" d="M268.8,317.4c3.6-2.5,7.5-4.5,11.2-6.7c8.3-4.8,16.5-9.6,24.8-14.3c0.7-0.4,1.3-0.7,2.2-0.2
		c12,7,24,13.9,35.9,20.8c0.2,0.1,0.3,0.4,0.5,0.6c-0.4,1.1-1.4,1.5-2.2,2c-11,6.2-21.8,12.7-32.7,18.9c-0.7,0.4-1.4,0.9-2.3,0.9
		c-1.5-0.2-2.6-1.1-3.8-1.8c-10.5-6.1-21-12.1-31.5-18.3C270,318.8,269,318.5,268.8,317.4z"/>
	<path class="st1" d="M270.5,324.4c3.4-2.4,7.1-4.3,10.7-6.3c7.8-4.6,15.7-9.1,23.6-13.6c0.7-0.4,1.2-0.7,2.1-0.2
		c11.4,6.6,22.8,13.2,34.2,19.8c0.2,0.1,0.3,0.4,0.4,0.6c-0.3,1-1.3,1.4-2.1,1.9c-10.4,5.9-20.7,12-31.1,18
		c-0.7,0.4-1.3,0.8-2.2,0.8c-1.4-0.2-2.5-1.1-3.7-1.8c-10-5.8-20-11.5-29.9-17.4C271.7,325.7,270.7,325.5,270.5,324.4z"/>
	<g>
		<path class="st2" d="M308.6,347.6c10.2-5.9,20.4-11.8,30.7-17.7c1.6-0.9,3.2-1.8,4.7-2.7c0,2,0.1,4,0.1,6c0,11,0,22.1,0,33.1
			c0,1.3-0.4,2-1.6,2.7c-10.5,6-21,12.1-31.5,18.2c-0.8,0.5-1.6,0.8-2.4,1.2c-0.8-0.8-0.8-1.7-0.8-2.7c0-11.8,0-23.6,0-35.4
			C307.9,349.3,307.8,348.3,308.6,347.6z"/>
	</g>
	<path class="st3" d="M303.5,348.4c0,13.6,0,27.2,0,40.9c-3.3-1.2-6.1-3.3-9.1-5c-8.5-4.8-16.9-9.7-25.3-14.6
		c-0.9-0.5-1.4-1-1.4-2.2c0-12.8,0-25.6,0-38.4c0-0.4,0.1-0.9,0.2-1.3c10.1,5.8,20.1,11.6,30.2,17.4
		C299.9,346.3,301.7,347.4,303.5,348.4z"/>
	<path class="st4" d="M297.5,352.9c0,13.6,0,27.2,0,40.9c-3.3-1.2-6.1-3.3-9.1-5c-8.5-4.8-16.9-9.7-25.3-14.6
		c-0.9-0.5-1.4-1-1.4-2.2c0-12.8,0-25.6,0-38.4c0-0.4,0.1-0.9,0.2-1.3c10.1,5.8,20.1,11.6,30.2,17.4
		C294,350.8,295.7,351.8,297.5,352.9z"/>
	<path class="st5" d="M314.6,352.8c10.2-5.9,20.4-11.8,30.7-17.7c1.6-0.9,3.2-1.8,4.7-2.7c0,2,0.1,4,0.1,6c0,11,0,22.1,0,33.1
		c0,1.3-0.4,2-1.6,2.7c-10.5,6-21,12.1-31.5,18.2c-0.8,0.5-1.6,0.8-2.4,1.2c-0.8-0.8-0.8-1.7-0.8-2.7c0-11.8,0-23.6,0-35.4
		C313.8,354.5,313.7,353.5,314.6,352.8z"/>
</g>
<g>
	<text transform="matrix(1 0 0 1 257.642 468.8688)"><tspan x="0" y="0" class="st6 st7 st8">All The Data For </tspan><tspan x="7.4" y="10.1" class="st6 st7 st8">We The People</tspan></text>
	<path d="M291.1,435.4c0-4.7,0-9.4,0-14.1c0-1.4,0-1.5,1.5-1.5c4.2,0,8.4-0.1,12.6,0.1c4.3,0.2,8,2,10.9,5.2c1.4,1.5,2.5,3.2,3,5.2
		c0.4,1.5,0.8,3,0.9,4.6c0.2,1.8-0.3,3.6-0.8,5.4c-0.7,2.4-2,4.4-3.8,6.2c-2,2-4.4,3.4-7.3,4c-1.4,0.3-2.8,0.4-4.2,0.5
		c-3.9,0.1-7.8,0-11.7,0c-1.1,0-1.1-0.1-1.1-1.1C291.1,445.1,291.1,440.2,291.1,435.4z M295.2,435.4c0,3.6,0,7.2,0,10.7
		c0,1.1,0.1,1.2,1.2,1.2c1,0,1.9,0,2.9,0c2.6-0.1,5.2,0.3,7.8-0.4c2.2-0.6,4.1-1.8,5.7-3.4c1.6-1.7,2.5-3.7,3-5.9
		c0.5-2.1,0.2-4.2-0.5-6.2c-0.7-2-1.9-3.7-3.6-5.1c-1.4-1.2-3.1-2.2-5-2.5c-1.7-0.3-3.5-0.4-5.2-0.4c-1.6-0.1-3.2,0-4.9,0
		c-1.3,0-1.4,0.2-1.4,1.4C295.2,428.4,295.2,431.9,295.2,435.4z"/>
	<path d="M274,419.7c4.2-0.2,7.7,1.2,10.8,3.7c1.1,0.9,1.1,1.1,0.2,2.1c-0.3,0.4-0.7,0.8-1,1.2c-0.3,0.4-0.6,0.4-1,0.1
		c-1.3-1.2-2.7-2.1-4.3-2.7c-2.5-0.9-5-1.1-7.5-0.5c-2.6,0.7-4.8,2.1-6.5,4.2c-2.5,3.2-3.3,6.8-2.2,10.8c1.3,4.6,4.4,7.5,9,8.6
		c4.1,1,7.8-0.1,11.1-2.8c0.8-0.7,0.9-0.7,1.7,0.1c0.4,0.4,0.8,0.9,1.2,1.3c0.4,0.4,0.3,0.8-0.1,1.1c-1.9,1.6-3.9,2.8-6.3,3.6
		c-1.8,0.6-3.6,0.9-5.5,0.8c-3.4-0.1-6.5-1.2-9.2-3.3c-2.3-1.7-4.1-3.9-5.2-6.6c-1.2-3.1-1.5-6.3-0.7-9.6c0.9-3.6,2.7-6.5,5.6-8.8
		C266.9,420.8,270.2,419.5,274,419.7z"/>
	<path d="M323.5,451c-0.5,0-0.9,0-1.4,0c-0.7,0-0.9-0.3-0.8-1c0.8-4.1,2.5-7.7,5.5-10.7c1.9-1.8,4-3.2,6.5-4c1.6-0.5,3.4-0.5,5-0.7
		c0.3,0,0.7,0,1,0c0.5,0,0.6-0.3,0.4-0.7c-1.4-3.6-2.8-7.1-4.2-10.7c-0.3-0.8-0.7-1.6-1-2.4c-0.3-0.8-0.1-0.9,0.7-0.9
		c0.7,0,1.4,0.1,2.1,0c1-0.1,1.5,0.4,1.8,1.2c0.8,2.1,1.5,4.1,2.3,6.2c0.8,2,1.6,3.9,2.3,5.9c0.8,2.1,1.6,4.2,2.5,6.4
		c1,2.5,2,5,3,7.5c0.4,1,0.8,2,1.2,3c0.3,0.8,0.1,1-0.7,1c-0.6,0-1.3-0.1-1.9,0c-1,0.1-1.5-0.3-1.8-1.2c-1.1-2.9-2.2-5.8-3.4-8.7
		c-0.2-0.6-0.5-1.1-0.7-1.7c-0.3-1-1.1-1.1-2-1.2c-4-0.2-7.5,1-10.4,3.8c-2.1,2.1-3.1,4.9-3.6,7.8c-0.2,1.1-0.1,1.1-1.2,1.1
		C324.3,451,323.9,451,323.5,451z"/>
</g>
<rect x="216.3" y="269.9" class="st9" width="179.3" height="251.8"/>
</svg>
