<?xml version="1.0" encoding="utf-8"?>
<!-- Generator: Adobe Illustrator 21.1.0, SVG Export Plug-In . SVG Version: 6.00 Build 0)  -->
<svg version="1.0" id="Layer_1" xmlns="http://www.w3.org/2000/svg" xmlns:xlink="http://www.w3.org/1999/xlink" x="0px" y="0px"
	 viewBox="0 0 612 792" style="enable-background:new 0 0 612 792;" xml:space="preserve">
<style type="text/css">
	.st0{opacity:0.23;fill:none;stroke:#ED2024;stroke-miterlimit:10;}
	.st1{fill:none;stroke:#ED2024;stroke-miterlimit:10;}
	.st2{fill:none;stroke:#2D2E30;stroke-miterlimit:10;}
	.st3{fill:none;stroke:#3BC1C9;stroke-miterlimit:10;}
	.st4{opacity:0.5;fill:none;stroke:#3BC1C9;stroke-miterlimit:10;}
	.st5{opacity:0.5;fill:none;stroke:#2D2E30;stroke-miterlimit:10;}
	.st6{font-family:'Avenir65-Medium';}
	.st7{font-size:8.1767px;}
	.st8{letter-spacing:2;}
	.st9{font-family:'AvenirLTStd-Roman';}
	.st10{font-size:11.5311px;}
	.st11{opacity:0.15;fill:none;stroke:#000000;stroke-miterlimit:10;}
</style>
<g>
	<path class="st0" d="M268.7,317.6c3.6-2.5,7.5-4.5,11.2-6.7c8.3-4.8,16.5-9.6,24.8-14.3c0.7-0.4,1.3-0.7,2.2-0.2
		c12,7,24,13.9,35.9,20.8c0.2,0.1,0.3,0.4,0.5,0.6c-0.4,1.1-1.4,1.5-2.2,2c-11,6.2-21.8,12.7-32.7,18.9c-0.7,0.4-1.4,0.9-2.3,0.9
		c-1.5-0.2-2.6-1.1-3.8-1.8c-10.5-6.1-21-12.1-31.5-18.3C270,319,269,318.7,268.7,317.6z"/>
	<path class="st1" d="M270.5,324.6c3.4-2.4,7.1-4.3,10.7-6.3c7.8-4.6,15.7-9.1,23.6-13.6c0.7-0.4,1.2-0.7,2.1-0.2
		c11.4,6.6,22.8,13.2,34.2,19.8c0.2,0.1,0.3,0.4,0.4,0.6c-0.3,1-1.3,1.4-2.1,1.9c-10.4,5.9-20.7,12-31.1,18
		c-0.7,0.4-1.3,0.8-2.2,0.8c-1.4-0.2-2.5-1.1-3.7-1.8c-10-5.8-20-11.5-29.9-17.4C271.7,325.9,270.7,325.6,270.5,324.6z"/>
	<g>
		<path class="st2" d="M308.6,347.7c10.2-5.9,20.4-11.8,30.7-17.7c1.6-0.9,3.2-1.8,4.7-2.7c0,2,0.1,4,0.1,6c0,11,0,22.1,0,33.1
			c0,1.3-0.4,2-1.6,2.7c-10.5,6-21,12.1-31.5,18.2c-0.8,0.5-1.6,0.8-2.4,1.2c-0.8-0.8-0.8-1.7-0.8-2.7c0-11.8,0-23.6,0-35.4
			C307.8,349.5,307.8,348.5,308.6,347.7z"/>
	</g>
	<path class="st3" d="M303.4,348.6c0,13.6,0,27.2,0,40.9c-3.3-1.2-6.1-3.3-9.1-5c-8.5-4.8-16.9-9.7-25.3-14.6
		c-0.9-0.5-1.4-1-1.4-2.2c0-12.8,0-25.6,0-38.4c0-0.4,0.1-0.9,0.2-1.3c10.1,5.8,20.1,11.6,30.2,17.4
		C299.9,346.5,301.6,347.6,303.4,348.6z"/>
	<path class="st4" d="M297.5,353.1c0,13.6,0,27.2,0,40.9c-3.3-1.2-6.1-3.3-9.1-5c-8.5-4.8-16.9-9.7-25.3-14.6
		c-0.9-0.5-1.4-1-1.4-2.2c0-12.8,0-25.6,0-38.4c0-0.4,0.1-0.9,0.2-1.3c10.1,5.8,20.1,11.6,30.2,17.4
		C293.9,351,295.7,352,297.5,353.1z"/>
	<path class="st5" d="M314.5,353c10.2-5.9,20.4-11.8,30.7-17.7c1.6-0.9,3.2-1.8,4.7-2.7c0,2,0.1,4,0.1,6c0,11,0,22.1,0,33.1
		c0,1.3-0.4,2-1.6,2.7c-10.5,6-21,12.1-31.5,18.2c-0.8,0.5-1.6,0.8-2.4,1.2c-0.8-0.8-0.8-1.7-0.8-2.7c0-11.8,0-23.6,0-35.4
		C313.8,354.7,313.7,353.7,314.5,353z"/>
</g>
<text transform="matrix(1 0 0 1 253.692 478.3944)"><tspan x="0" y="0" class="st6 st7 st8">All The Data For </tspan><tspan x="8" y="10.9" class="st6 st7 st8">We The People</tspan></text>
<g>
	<g>
		<path d="M269.5,456.1c-0.1,0-0.2,0-0.3,0c-0.1,0-0.2-0.1-0.2-0.2c0.2-1,0.5-1.8,1.1-2.5c0.4-0.4,0.8-0.8,1.3-0.9
			c0.3-0.1,0.7-0.1,1-0.2c0.1,0,0.1,0,0.2,0c0.1,0,0.1-0.1,0.1-0.2c-0.3-0.8-0.6-1.7-0.9-2.5c-0.1-0.2-0.1-0.4-0.2-0.6
			c-0.1-0.2,0-0.2,0.1-0.2c0.1,0,0.3,0,0.4,0c0.2,0,0.3,0.1,0.4,0.3c0.2,0.5,0.3,1,0.5,1.5c0.2,0.5,0.3,0.9,0.5,1.4
			c0.2,0.5,0.3,1,0.5,1.5c0.2,0.6,0.4,1.2,0.6,1.8c0.1,0.2,0.2,0.5,0.2,0.7c0.1,0.2,0,0.2-0.1,0.2c-0.1,0-0.3,0-0.4,0
			c-0.2,0-0.3-0.1-0.4-0.3c-0.2-0.7-0.5-1.4-0.7-2.1c0-0.1-0.1-0.3-0.1-0.4c-0.1-0.2-0.2-0.3-0.4-0.3c-0.8,0-1.6,0.2-2.1,0.9
			c-0.4,0.5-0.7,1.1-0.7,1.8c0,0.3,0,0.3-0.3,0.3C269.6,456.1,269.6,456.1,269.5,456.1z"/>
		<text transform="matrix(1 0 0 1 270.8625 456.2378)" class="st9 st10 st8"> LLIANCE</text>
	</g>
	<text transform="matrix(1 0 0 1 283.0081 428.564)"><tspan x="0" y="0" class="st9 st10 st8">CIVIC</tspan><tspan x="0.3" y="13.8" class="st9 st10 st8">DATA</tspan></text>
</g>
<rect x="216.2" y="269.9" class="st11" width="179.3" height="251.8"/>
</svg>
