<?xml version="1.0" encoding="utf-8"?>
<!-- Generator: Adobe Illustrator 21.1.0, SVG Export Plug-In . SVG Version: 6.00 Build 0)  -->
<svg version="1.0" id="Layer_1" xmlns="http://www.w3.org/2000/svg" xmlns:xlink="http://www.w3.org/1999/xlink" x="0px" y="0px"
	 viewBox="0 0 612 792" style="enable-background:new 0 0 612 792;" xml:space="preserve">
<style type="text/css">
	.st0{opacity:0.15;fill:none;stroke:#000000;stroke-miterlimit:10;}
	.st1{fill:none;stroke:#3BC1C9;stroke-miterlimit:10;}
	.st2{opacity:0.5;fill:none;stroke:#3BC1C9;stroke-miterlimit:10;}
	.st3{opacity:0.23;fill:none;stroke:#ED2024;stroke-miterlimit:10;}
	.st4{fill:none;stroke:#ED2024;stroke-miterlimit:10;}
	.st5{fill:none;stroke:#2D2E30;stroke-miterlimit:10;}
	.st6{opacity:0.5;fill:none;stroke:#2D2E30;stroke-miterlimit:10;}
</style>
<g>
	<path d="M285.4,462.2c0-7.2,0-14.4,0-21.6c0-2.2,0.1-2.3,2.3-2.2c6.4,0,12.8-0.1,19.2,0.2c6.6,0.3,12.3,3,16.8,8
		c2.1,2.3,3.8,4.9,4.6,8c0.6,2.3,1.2,4.7,1.4,7c0.2,2.8-0.4,5.6-1.2,8.3c-1.1,3.7-3.1,6.8-5.8,9.4c-3.1,3.1-6.8,5.2-11.1,6.1
		c-2.1,0.4-4.2,0.7-6.4,0.7c-6,0.1-12,0-18,0c-1.6,0-1.7-0.1-1.7-1.7C285.4,477.1,285.4,469.6,285.4,462.2z M291.6,462.3
		c0,5.5,0,11,0,16.4c0,1.7,0.2,1.9,1.9,1.9c1.5,0,3,0.1,4.4,0c4-0.2,8,0.5,11.9-0.6c3.4-1,6.3-2.7,8.7-5.2c2.4-2.5,3.8-5.6,4.5-9
		c0.7-3.2,0.3-6.4-0.7-9.5c-1.1-3.1-3-5.7-5.5-7.9c-2.2-1.9-4.7-3.3-7.6-3.8c-2.6-0.5-5.4-0.6-8-0.7c-2.5-0.1-5,0-7.5,0
		c-1.9,0-2.2,0.3-2.2,2.2C291.6,451.5,291.6,456.9,291.6,462.3z"/>
	<path d="M259.1,438.2c6.4-0.3,11.7,1.9,16.5,5.7c1.7,1.4,1.7,1.6,0.3,3.2c-0.5,0.6-1.1,1.2-1.6,1.8c-0.5,0.6-0.9,0.7-1.5,0.2
		c-1.9-1.8-4.1-3.2-6.6-4.1c-3.8-1.4-7.6-1.7-11.5-0.7c-4,1.1-7.4,3.2-10,6.5c-3.8,4.9-5.1,10.4-3.4,16.5c2,7,6.8,11.5,13.8,13.2
		c6.3,1.5,12-0.2,17-4.3c1.3-1.1,1.3-1.1,2.5,0.1c0.6,0.7,1.2,1.4,1.9,2.1c0.6,0.6,0.5,1.1-0.1,1.7c-2.9,2.5-6,4.4-9.7,5.5
		c-2.8,0.9-5.6,1.3-8.4,1.2c-5.2-0.2-10-1.8-14.2-5c-3.6-2.7-6.3-6-7.9-10.1c-1.9-4.8-2.4-9.7-1.1-14.7c1.3-5.5,4.2-10,8.6-13.4
		C248.3,439.9,253.4,437.9,259.1,438.2z"/>
	<path d="M335.1,486.1c-0.7,0-1.4,0-2.2,0c-1.1,0-1.4-0.5-1.2-1.5c1.3-6.2,3.8-11.8,8.4-16.4c2.9-2.8,6.1-4.9,9.9-6.1
		c2.5-0.7,5.1-0.8,7.7-1.1c0.5-0.1,1,0,1.5,0c0.8-0.1,0.9-0.4,0.6-1.1c-2.2-5.5-4.3-10.9-6.4-16.4c-0.5-1.2-1.1-2.5-1.5-3.7
		c-0.4-1.2-0.2-1.4,1.1-1.4c1.1,0.1,2.1,0.2,3.2,0.1c1.5-0.2,2.3,0.6,2.7,1.8c1.2,3.1,2.4,6.3,3.6,9.4c1.2,3,2.4,6,3.6,9
		c1.3,3.2,2.5,6.5,3.8,9.8c1.5,3.8,3,7.7,4.5,11.5c0.6,1.5,1.2,3,1.8,4.6c0.4,1.2,0.1,1.5-1.1,1.6c-1,0-2-0.1-2.9,0
		c-1.5,0.2-2.3-0.5-2.8-1.8c-1.7-4.5-3.4-8.9-5.1-13.4c-0.3-0.9-0.8-1.7-1-2.6c-0.5-1.6-1.6-1.7-3.1-1.8c-6.1-0.3-11.5,1.5-15.9,5.8
		c-3.3,3.3-4.8,7.5-5.5,12c-0.2,1.7-0.2,1.7-1.9,1.7C336.2,486.1,335.7,486.1,335.1,486.1z"/>
</g>
<rect x="215.7" y="269.9" class="st0" width="179.3" height="251.8"/>
<g>
	<path class="st1" d="M302.9,359.3c0,13.6,0,27.2,0,40.9c-3.3-1.2-6.1-3.3-9.1-5c-8.5-4.8-16.9-9.7-25.3-14.6
		c-0.9-0.5-1.4-1-1.4-2.2c0-12.8,0-25.6,0-38.4c0-0.4,0.1-0.9,0.2-1.3c10.1,5.8,20.1,11.6,30.2,17.4
		C299.3,357.2,301.1,358.3,302.9,359.3z"/>
	<path class="st2" d="M297,363.8c0,13.6,0,27.2,0,40.9c-3.3-1.2-6.1-3.3-9.1-5c-8.5-4.8-16.9-9.7-25.3-14.6c-0.9-0.5-1.4-1-1.4-2.2
		c0-12.8,0-25.6,0-38.4c0-0.4,0.1-0.9,0.2-1.3c10.1,5.8,20.1,11.6,30.2,17.4C293.4,361.7,295.2,362.7,297,363.8z"/>
	<path class="st3" d="M268.2,328.3c3.6-2.5,7.5-4.5,11.2-6.7c8.3-4.8,16.5-9.6,24.8-14.3c0.7-0.4,1.3-0.7,2.2-0.2
		c12,7,24,13.9,35.9,20.8c0.2,0.1,0.3,0.4,0.5,0.6c-0.4,1.1-1.4,1.5-2.2,2c-11,6.2-21.8,12.7-32.7,18.9c-0.7,0.4-1.4,0.9-2.3,0.9
		c-1.5-0.2-2.6-1.1-3.8-1.8c-10.5-6.1-21-12.1-31.5-18.3C269.5,329.6,268.4,329.4,268.2,328.3z"/>
	<path class="st4" d="M269.9,335.3c3.4-2.4,7.1-4.3,10.7-6.3c7.8-4.6,15.7-9.1,23.6-13.6c0.7-0.4,1.2-0.7,2.1-0.2
		c11.4,6.6,22.8,13.2,34.2,19.8c0.2,0.1,0.3,0.4,0.4,0.6c-0.3,1-1.3,1.4-2.1,1.9c-10.4,5.9-20.7,12-31.1,18
		c-0.7,0.4-1.3,0.8-2.2,0.8c-1.4-0.2-2.5-1.1-3.7-1.8c-10-5.8-20-11.5-29.9-17.4C271.2,336.6,270.2,336.3,269.9,335.3z"/>
	<g>
		<path class="st5" d="M308.1,358.4c10.2-5.9,20.4-11.8,30.7-17.7c1.6-0.9,3.2-1.8,4.7-2.7c0,2,0.1,4,0.1,6c0,11,0,22.1,0,33.1
			c0,1.3-0.4,2-1.6,2.7c-10.5,6-21,12.1-31.5,18.2c-0.8,0.5-1.6,0.8-2.4,1.2c-0.8-0.8-0.8-1.7-0.8-2.7c0-11.8,0-23.6,0-35.4
			C307.3,360.2,307.2,359.2,308.1,358.4z"/>
	</g>
	<path class="st6" d="M314,363.7c10.2-5.9,20.4-11.8,30.7-17.7c1.6-0.9,3.2-1.8,4.7-2.7c0,2,0.1,4,0.1,6c0,11,0,22.1,0,33.1
		c0,1.3-0.4,2-1.6,2.7c-10.5,6-21,12.1-31.5,18.2c-0.8,0.5-1.6,0.8-2.4,1.2c-0.8-0.8-0.8-1.7-0.8-2.7c0-11.8,0-23.6,0-35.4
		C313.2,365.4,313.2,364.4,314,363.7z"/>
</g>
</svg>
