<?xml version="1.0" encoding="utf-8"?>
<!-- Generator: Adobe Illustrator 21.1.0, SVG Export Plug-In . SVG Version: 6.00 Build 0)  -->
<svg version="1.0" id="Layer_1" xmlns="http://www.w3.org/2000/svg" xmlns:xlink="http://www.w3.org/1999/xlink" x="0px" y="0px"
	 viewBox="0 0 612 792" style="enable-background:new 0 0 612 792;" xml:space="preserve">
<style type="text/css">
	.st0{fill:#ED2024;}
	.st1{fill:#2D2E30;}
	.st2{fill:#3BC1C9;}
	.st3{opacity:0.23;fill:#ED2024;}
	.st4{opacity:0.5;fill:#3BC1C9;}
	.st5{opacity:0.5;fill:#2D2E30;}
	.st6{opacity:0.15;fill:none;stroke:#000000;stroke-miterlimit:10;}
</style>
<g>
	<path d="M286.2,462.2c0-7.2,0-14.4,0-21.6c0-2.2,0.1-2.3,2.3-2.2c6.4,0,12.8-0.1,19.2,0.2c6.6,0.3,12.3,3,16.8,8
		c2.1,2.3,3.8,4.9,4.6,8c0.6,2.3,1.2,4.7,1.4,7c0.2,2.8-0.4,5.6-1.2,8.3c-1.1,3.7-3.1,6.8-5.8,9.4c-3.1,3.1-6.8,5.2-11.1,6.1
		c-2.1,0.4-4.2,0.7-6.4,0.7c-6,0.1-12,0-18,0c-1.6,0-1.7-0.1-1.7-1.7C286.2,477.1,286.2,469.6,286.2,462.2z M292.4,462.3
		c0,5.5,0,11,0,16.4c0,1.7,0.2,1.9,1.9,1.9c1.5,0,3,0.1,4.4,0c4-0.2,8,0.5,11.9-0.6c3.4-1,6.3-2.7,8.7-5.2c2.4-2.5,3.8-5.6,4.5-9
		c0.7-3.2,0.3-6.4-0.7-9.5c-1.1-3.1-3-5.7-5.5-7.9c-2.2-1.9-4.7-3.3-7.6-3.8c-2.6-0.5-5.4-0.6-8-0.7c-2.5-0.1-5,0-7.5,0
		c-1.9,0-2.2,0.3-2.2,2.2C292.4,451.5,292.4,456.9,292.4,462.3z"/>
	<path d="M259.9,438.2c6.4-0.3,11.7,1.9,16.5,5.7c1.7,1.4,1.7,1.6,0.3,3.2c-0.5,0.6-1.1,1.2-1.6,1.8c-0.5,0.6-0.9,0.7-1.5,0.2
		c-1.9-1.8-4.1-3.2-6.6-4.1c-3.8-1.4-7.6-1.7-11.5-0.7c-4,1.1-7.4,3.2-10,6.5c-3.8,4.9-5.1,10.4-3.4,16.5c2,7,6.8,11.5,13.8,13.2
		c6.3,1.5,12-0.2,17-4.3c1.3-1.1,1.3-1.1,2.5,0.1c0.6,0.7,1.2,1.4,1.9,2.1c0.6,0.6,0.5,1.1-0.1,1.7c-2.9,2.5-6,4.4-9.7,5.5
		c-2.8,0.9-5.6,1.3-8.4,1.2c-5.2-0.2-10-1.8-14.2-5c-3.6-2.7-6.3-6-7.9-10.1c-1.9-4.8-2.4-9.7-1.1-14.7c1.3-5.5,4.2-10,8.6-13.4
		C249.1,439.9,254.2,437.9,259.9,438.2z"/>
	<path d="M335.9,486.1c-0.7,0-1.4,0-2.2,0c-1.1,0-1.4-0.5-1.2-1.5c1.3-6.2,3.8-11.8,8.4-16.4c2.9-2.8,6.1-4.9,9.9-6.1
		c2.5-0.7,5.1-0.8,7.7-1.1c0.5-0.1,1,0,1.5,0c0.8-0.1,0.9-0.4,0.6-1.1c-2.2-5.5-4.3-10.9-6.4-16.4c-0.5-1.2-1.1-2.5-1.5-3.7
		c-0.4-1.2-0.2-1.4,1.1-1.4c1.1,0.1,2.1,0.2,3.2,0.1c1.5-0.2,2.3,0.6,2.7,1.8c1.2,3.1,2.4,6.3,3.6,9.4c1.2,3,2.4,6,3.6,9
		c1.3,3.2,2.5,6.5,3.8,9.8c1.5,3.8,3,7.7,4.5,11.5c0.6,1.5,1.2,3,1.8,4.6c0.4,1.2,0.1,1.5-1.1,1.6c-1,0-2-0.1-2.9,0
		c-1.5,0.2-2.3-0.5-2.8-1.8c-1.7-4.5-3.4-8.9-5.1-13.4c-0.3-0.9-0.8-1.7-1-2.6c-0.5-1.6-1.6-1.7-3.1-1.8c-6.1-0.3-11.5,1.5-15.9,5.8
		c-3.3,3.3-4.8,7.5-5.5,12c-0.2,1.7-0.2,1.7-1.9,1.7C337,486.1,336.5,486.1,335.9,486.1z"/>
</g>
<g>
	<path class="st0" d="M263.4,337.2c3.9-2.7,8.2-4.9,12.4-7.3c9.1-5.3,18.2-10.5,27.3-15.8c0.8-0.5,1.4-0.8,2.4-0.2
		c13.2,7.6,26.3,15.2,39.5,22.9c0.2,0.1,0.3,0.4,0.5,0.7c-0.4,1.2-1.5,1.6-2.4,2.2c-12.1,6.8-24,13.9-36,20.8
		c-0.8,0.4-1.5,1-2.5,0.9c-1.6-0.2-2.9-1.2-4.2-2c-11.5-6.7-23.1-13.3-34.6-20.1C264.8,338.7,263.7,338.4,263.4,337.2z"/>
	<path class="st1" d="M304.5,361c11.8-6.8,23.6-13.6,35.5-20.5c1.8-1,3.6-2.1,5.5-3.1c0,2.3,0.1,4.6,0.1,7c0,12.8,0,25.5,0,38.3
		c0,1.5-0.5,2.4-1.8,3.1c-12.2,7-24.3,14-36.5,21c-0.9,0.5-1.9,1-2.8,1.4c-0.9-0.9-0.9-2-0.9-3.1c0-13.7,0-27.3,0-41
		C303.7,363,303.6,361.8,304.5,361z"/>
	<path class="st2" d="M304.5,361c0,15.8,0,31.5,0,47.3c-3.8-1.4-7-3.8-10.5-5.7c-9.8-5.5-19.5-11.3-29.3-16.8
		c-1.1-0.6-1.7-1.2-1.7-2.6c0.1-14.8,0-29.6,0-44.4c0-0.5,0.2-1,0.2-1.5c11.6,6.7,23.3,13.4,34.9,20.1
		C300.4,358.5,302.5,359.7,304.5,361z"/>
	<path class="st3" d="M262.6,329.5c3.9-2.7,8.2-4.9,12.4-7.3c9.1-5.3,18.2-10.5,27.3-15.8c0.8-0.5,1.4-0.8,2.4-0.2
		c13.2,7.6,26.3,15.2,39.5,22.9c0.2,0.1,0.3,0.4,0.5,0.7c-0.4,1.2-1.5,1.6-2.4,2.2c-12.1,6.8-24,13.9-36,20.8
		c-0.8,0.4-1.5,1-2.5,0.9c-1.6-0.2-2.9-1.2-4.2-2c-11.5-6.7-23.1-13.3-34.6-20.1C264,331,262.9,330.7,262.6,329.5z"/>
	<path class="st4" d="M298.7,366.1c0,15.8,0,31.5,0,47.3c-3.8-1.4-7-3.8-10.5-5.7c-9.8-5.5-19.5-11.3-29.3-16.8
		c-1.1-0.6-1.7-1.2-1.7-2.6c0.1-14.8,0-29.6,0-44.4c0-0.5,0.2-1,0.2-1.5c11.6,6.7,23.3,13.4,34.9,20.1
		C294.5,363.7,296.6,364.9,298.7,366.1z"/>
	<path class="st5" d="M310.4,366c11.8-6.8,23.6-13.6,35.5-20.5c1.8-1,3.6-2.1,5.5-3.1c0,2.3,0.1,4.6,0.1,7c0,12.8,0,25.5,0,38.3
		c0,1.5-0.5,2.4-1.8,3.1c-12.2,7-24.3,14-36.5,21c-0.9,0.5-1.9,1-2.8,1.4c-0.9-0.9-0.9-2-0.9-3.1c0-13.7,0-27.3,0-41
		C309.5,368,309.4,366.9,310.4,366z"/>
</g>
<rect x="216.3" y="269.9" class="st6" width="179.3" height="251.8"/>
</svg>
